<svg xmlns="http://www.w3.org/2000/svg" width="100%" height="100%" viewBox="0 0 921 451"><g transform="matrix(1,0,0,1,-236.152,-193.9)"><path d="M1155.9,457.2L1156,457.1L1128.5,389L1062.5,357.1L938.5,357.1L980.7,357.1L962.1,357.1L963.7,418.3L980.7,418L1037.6,418.1L1064.6,430.9L1079.8,438.5L1087.8,457.6L1080.6,476.5L1037.8,496.4L1037.7,498.1L1079.1,550.4L1082,548.8L1128.5,525.7L1156,457.5L1155.9,457.2Z" style="fill:url(#_Linear1);fill-rule:nonzero;"/></g><g transform="matrix(1,0,0,1,-236.152,-193.9)"><path d="M1014.3,559.4L1019.9,566.1L1078.1,637.8L1157,637.8L1082,548.8L1037.8,496.4L1014.3,559.4Z" style="fill:rgb(208,15,28);fill-rule:nonzero;"/></g><g transform="matrix(1,0,0,1,-202.4,-193.9)"><path d="M544.6,193.9L481,250L481,313.6L544.6,251L544.6,193.9Z" style="fill:rgb(208,15,28);fill-rule:nonzero;"/></g><rect id="rect17" x="278.6" y="163.9" width="63.6" height="280.6" style="fill:rgb(208,15,28);"/><g transform="matrix(1,0,0,1,-202.4,-193.9)"><path d="M282.4,638.4L370.1,638.4L334,532.6L315.7,514.7L266,401.5L202.4,457.6L282.4,638.4Z" style="fill:rgb(155,11,32);fill-rule:nonzero;"/></g><g transform="matrix(1,0,0,1,-202.4,-193.9)"><path d="M282.4,638.4L370.1,638.4L439.2,275.3L361.4,345.4L315.7,514.7L282.4,638.4Z" style="fill:rgb(208,15,28);fill-rule:nonzero;"/></g><g transform="matrix(1,0,0,1,-202.4,-193.9)"><path d="M597.2,357.8L597.2,536L605,563.2L675.4,581.2L669.5,568.6L660.6,537.7L660.8,357.8L597.2,357.8Z" style="fill:rgb(155,11,32);fill-rule:nonzero;"/></g><g transform="matrix(0.573814,0,0,0.573814,-169.113,-41.8885)"><path d="M1280.7,358.5L1280.7,671.8L1265.4,725.9L1209.8,746.5L1183.19,753.357L1108.46,725.9L982.335,668.999L1022.76,809.5L1141.46,857.4L1231.5,857.4L1350.5,809.5L1391.5,669.7L1391.5,358.5L1280.7,358.5Z" style="fill:rgb(208,15,28);fill-rule:nonzero;"/></g><g transform="matrix(1,0,0,1,-33.7523,0)"><rect x="714.6" y="163.7" width="63.7" height="280.2" style="fill:rgb(208,15,28);"/></g><defs><linearGradient id="_Linear1" x1="0" y1="0" x2="1" y2="0" gradientUnits="userSpaceOnUse" gradientTransform="matrix(1.18362e-14,-193.3,193.3,1.18362e-14,1047.23,550.381)"><stop offset="0" style="stop-color:rgb(155,11,32);stop-opacity:1"/><stop offset="0.76" style="stop-color:rgb(208,15,28);stop-opacity:1"/><stop offset="1" style="stop-color:rgb(208,15,28);stop-opacity:1"/></linearGradient></defs></svg>