<?xml version="1.0" encoding="UTF-8" standalone="no"?>
<!-- Generator: Adobe Illustrator 25.4.1, SVG Export Plug-In . SVG Version: 6.00 Build 0)  -->

<svg
   version="1.1"
   id="Ebene_1"
   x="0px"
   y="0px"
   viewBox="0 0 954.59999 450.1"
   xml:space="preserve"
   sodipodi:docname="logo.svg"
   width="954.59998"
   height="450.10001"
   inkscape:version="1.1.2 (0a00cf5339, 2022-02-04, custom)"
   xmlns:inkscape="http://www.inkscape.org/namespaces/inkscape"
   xmlns:sodipodi="http://sodipodi.sourceforge.net/DTD/sodipodi-0.dtd"
   xmlns="http://www.w3.org/2000/svg"
   xmlns:svg="http://www.w3.org/2000/svg"><defs
   id="defs40" /><sodipodi:namedview
   id="namedview38"
   pagecolor="#ffffff"
   bordercolor="#666666"
   borderopacity="1.0"
   inkscape:pageshadow="2"
   inkscape:pageopacity="0.0"
   inkscape:pagecheckerboard="0"
   showgrid="false"
   inkscape:zoom="1.3063595"
   inkscape:cx="477.28055"
   inkscape:cy="224.67016"
   inkscape:window-width="2048"
   inkscape:window-height="1069"
   inkscape:window-x="0"
   inkscape:window-y="0"
   inkscape:window-maximized="1"
   inkscape:current-layer="Ebene_1"
   fit-margin-top="0"
   fit-margin-left="0"
   fit-margin-right="0"
   fit-margin-bottom="0" />
<style
   type="text/css"
   id="style2">
	.st0{fill:url(#SVGID_1_);}
	.st1{fill:#FFFFFF;}
	.st2{fill:#E3E3E3;}
</style>
<g
   id="g33"
   transform="translate(-30.6,-26.5)">
	
		<linearGradient
   id="SVGID_1_"
   gradientUnits="userSpaceOnUse"
   x1="875.45001"
   y1="120.8519"
   x2="875.45001"
   y2="314.18979"
   gradientTransform="matrix(1,0,0,-1,0,503.8898)">
		<stop
   offset="0"
   style="stop-color:#E3E3E3"
   id="stop4" />
		<stop
   offset="0.2833"
   style="stop-color:#E7E7E7"
   id="stop6" />
		<stop
   offset="0.5845"
   style="stop-color:#F4F4F4"
   id="stop8" />
		<stop
   offset="0.7586"
   style="stop-color:#FFFFFF"
   id="stop10" />
	</linearGradient>
	<polygon
   class="st0"
   points="984.1,289.8 984.2,289.7 956.7,221.6 890.7,189.7 808.9,189.7 766.7,189.7 808.9,189.7 790.3,189.7 791.9,250.9 808.9,250.6 865.8,250.7 892.8,263.5 908,271.1 916,290.2 908.8,309.1 866,329 865.9,330.7 907.3,383 910.2,381.4 956.7,358.3 984.2,290.1 "
   id="polygon13"
   style="fill:url(#SVGID_1_)" />
	<polygon
   class="st1"
   points="842.5,392 848.1,398.7 906.3,470.4 985.2,470.4 910.2,381.4 866,329 "
   id="polygon15" />
	<polygon
   class="st1"
   points="745.2,250 745.2,250.2 745.2,425.3 745.2,470.4 808.9,470.4 808.9,250.6 808.9,189.7 745.2,189.7 745.2,189.8 "
   id="polygon17" />
	<polygon
   class="st1"
   points="372.8,26.5 309.2,82.6 309.2,146.2 372.8,83.6 "
   id="polygon19" />
	<rect
   x="309.20001"
   y="190.39999"
   class="st1"
   width="63.599998"
   height="280.60001"
   id="rect21" />
	<polygon
   class="st2"
   points="110.6,471 198.3,471 162.2,365.2 143.9,347.3 94.2,234.1 30.6,290.2 "
   id="polygon23" />
	<polygon
   class="st1"
   points="110.6,471 198.3,471 267.4,107.9 189.6,178 143.9,347.3 "
   id="polygon25" />
	<path
   class="st2"
   d="M 556.8,421.2 Z"
   id="path27" />
	<polygon
   class="st2"
   points="425.4,190.4 425.4,368.6 433.2,395.8 503.6,413.8 497.7,401.2 488.8,370.3 489,190.4 "
   id="polygon29" />
	<polygon
   class="st1"
   points="620.5,401.2 588.6,413 556.8,421.2 556.8,421.2 556.8,421.2 497.7,401.2 425.4,368.6 448.6,449.1 516.7,476.6 601.1,476.6 669.4,449.1 692.9,368.9 692.9,190.4 629.3,190.4 629.3,370.2 "
   id="polygon31" />
</g>
<rect
   x="714.60004"
   y="163.7"
   class="st1"
   width="63.700001"
   height="280.20001"
   id="rect35" />
</svg>
