<svg xmlns="http://www.w3.org/2000/svg" xmlns:svg="http://www.w3.org/2000/svg" viewBox="0 0 954.59999 450.1" width="954.59998" height="450.10001"><style type="text/css" id="style2">.st0{fill:#D00F1C;}.st1{fill:url(#SVGID_1_);}.st2{fill:#FFFFFF;}.st3{fill:#E3E3E3;}</style><rect x="0.09748479" class="st0" width="961.21741" height="465.51968" id="rect4" y="0.36342311" style="stroke-width:0.606715"/><g id="g35" transform="translate(-202.4,-193.9)"><linearGradient id="SVGID_1_" gradientUnits="userSpaceOnUse" x1="1047.2278" y1="846.4917" x2="1047.2278" y2="653.19171" gradientTransform="translate(0,-296.1102)"><stop offset="0" style="stop-color:#E3E3E3" id="stop6"/><stop offset="0.2833" style="stop-color:#E7E7E7" id="stop8"/><stop offset="0.5845" style="stop-color:#F4F4F4" id="stop10"/><stop offset="0.7586" style="stop-color:#FFFFFF" id="stop12"/></linearGradient><polygon class="st1" points="1080.6,476.5 1037.8,496.4 1037.7,498.1 1079.1,550.4 1082,548.8 1128.5,525.7 1156,457.5 1155.9,457.2 1156,457.1 1128.5,389 1062.5,357.1 980.7,357.1 938.5,357.1 980.7,357.1 962.1,357.1 963.7,418.3 980.7,418 1037.6,418.1 1064.6,430.9 1079.8,438.5 1087.8,457.6 " id="polygon15" style="fill:url(#SVGID_1_)"/><polygon class="st2" points="1078.1,637.8 1157,637.8 1082,548.8 1037.8,496.4 1014.3,559.4 1019.9,566.1 " id="polygon17"/><polygon class="st2" points="980.7,418 980.7,357.1 917,357.1 917,357.2 917,417.4 917,417.6 917,592.7 917,637.8 980.7,637.8 " id="polygon19"/><polygon class="st2" points="481,313.6 544.6,251 544.6,193.9 481,250 " id="polygon21"/><rect x="481" y="357.79999" class="st2" width="63.599998" height="280.60001" id="rect23"/><polygon class="st3" points="334,532.6 315.7,514.7 266,401.5 202.4,457.6 282.4,638.4 370.1,638.4 " id="polygon25"/><polygon class="st2" points="315.7,514.7 282.4,638.4 370.1,638.4 439.2,275.3 361.4,345.4 " id="polygon27"/><path class="st3" d="M 728.6,588.6 Z" id="path29"/><polygon class="st3" points="597.2,357.8 597.2,536 605,563.2 675.4,581.2 669.5,568.6 660.6,537.7 660.8,357.8 " id="polygon31"/><polygon class="st2" points="801.1,537.6 792.3,568.6 760.4,580.4 728.6,588.6 669.5,568.6 597.2,536 620.4,616.5 688.5,644 772.9,644 841.2,616.5 864.7,536.3 864.7,357.8 801.1,357.8 " id="polygon33"/></g><rect x="714.59998" y="163.70001" class="st2" width="63.700001" height="280.20001" id="rect37"/></svg>