<svg xmlns="http://www.w3.org/2000/svg" width="100%" height="100%" viewBox="0 0 1442 1664"><g transform="matrix(1.84785,0,0,1.53745,1624.05,1304.28)"><g transform="matrix(0.541169,0,0,0.650428,-2648.07,-1639.26)"><path d="M3990.64,1216L3270.11,1632L3325.54,1664L3990.64,1280L4655.75,1664L4711.18,1632L3990.64,1216Z" style="fill:rgb(245,173,231);"/></g><g transform="matrix(-0.270585,0.563287,-0.468667,-0.325214,1551.19,-1889.02)"><path d="M3270.11,1632L3325.54,1664L3990.64,1280L4655.75,1664L4711.18,1632L3990.64,1216" style="fill:rgb(193,100,162);"/></g><g transform="matrix(-0.270585,-0.563287,0.468667,-0.325214,-368.472,2606.73)"><path d="M3325.54,1664L3990.64,1280L4655.75,1664L4711.18,1632L3990.64,1216L3270.11,1632" style="fill:rgb(128,60,86);"/></g><g transform="matrix(0.541169,0,0,0.650428,-4976.86,-1410.31)"><path d="M7628.8,2080L8293.9,1696L8959.01,2080L8293.9,2464L7628.8,2080Z" style="fill:url(#_Radial1);"/></g><g transform="matrix(0.541169,0,0,0.650428,-4976.86,-1410.31)"><path d="M8293.9,1696L7628.8,2080L7628.8,1312L8293.9,928" style="fill:url(#_Radial2);"/></g><g transform="matrix(0.541169,0,0,0.650428,-4976.86,-1410.31)"><path d="M8293.9,928L8959.01,1312L8959.01,2080L8293.9,1696L8293.9,928Z" style="fill:url(#_Radial3);"/></g><g transform="matrix(1.21807,-0.845238,1.85045,1.28405,-18704.3,-4620.75)"><rect x="4822.03" y="6601.66" width="103.593" height="68.191" style="fill:rgb(245,173,231);"/></g><g transform="matrix(2.27663,1.57978,-2.41591e-16,1.82418,-11466.4,-19850.8)"><rect x="4766.6" y="6633.66" width="55.426" height="96" style="fill:rgb(128,60,86);"/></g><g transform="matrix(2.27663,-1.57978,-1.68626e-16,1.82418,-11340.2,-4702.82)"><rect x="4766.6" y="6633.66" width="55.426" height="96" style="fill:rgb(193,100,162);"/></g><g transform="matrix(1.21807,-0.845238,1.85045,1.28405,-18578.1,-4883.43)"><rect x="4822.03" y="6601.66" width="103.593" height="68.191" style="fill:rgb(122,152,181);"/></g><g transform="matrix(2.27663,1.57978,-2.41591e-16,1.82418,-11340.2,-20113.5)"><rect x="4766.6" y="6633.66" width="55.426" height="96" style="fill:rgb(52,73,94);"/></g><g transform="matrix(2.27663,-1.57978,-1.68626e-16,1.82418,-11214.1,-4965.51)"><rect x="4766.6" y="6633.66" width="55.426" height="96" style="fill:rgb(79,111,143);"/></g><g transform="matrix(1.21807,-0.845238,1.85045,1.28405,-18830.5,-4883.43)"><rect x="4822.03" y="6601.66" width="103.593" height="68.191" style="fill:rgb(0,215,150);"/></g><g transform="matrix(2.27663,1.57978,-2.41591e-16,1.82418,-11592.6,-20113.5)"><rect x="4766.6" y="6633.66" width="55.426" height="96" style="fill:rgb(0,116,81);"/></g><g transform="matrix(2.27663,-1.57978,-1.68626e-16,1.82418,-11466.4,-4965.51)"><rect x="4766.6" y="6633.66" width="55.426" height="96" style="fill:rgb(0,185,129);"/></g></g><defs><radialGradient id="_Radial1" cx="0" cy="0" r="1" gradientUnits="userSpaceOnUse" gradientTransform="matrix(8.18545e-12,576,-576,8.18545e-12,8293.9,1696)"><stop offset="0" style="stop-color:white;stop-opacity:1"/><stop offset="1" style="stop-color:rgb(245,173,231);stop-opacity:1"/></radialGradient><radialGradient id="_Radial2" cx="0" cy="0" r="1" gradientUnits="userSpaceOnUse" gradientTransform="matrix(-498.831,-288,288,-498.831,8293.9,1696)"><stop offset="0" style="stop-color:rgb(240,223,236);stop-opacity:1"/><stop offset="1" style="stop-color:rgb(193,100,162);stop-opacity:1"/></radialGradient><radialGradient id="_Radial3" cx="0" cy="0" r="1" gradientUnits="userSpaceOnUse" gradientTransform="matrix(498.831,-288,288,498.831,8293.9,1696)"><stop offset="0" style="stop-color:rgb(240,185,234);stop-opacity:1"/><stop offset="1" style="stop-color:rgb(128,60,86);stop-opacity:1"/></radialGradient></defs></svg>