<svg xmlns="http://www.w3.org/2000/svg" width="100%" height="100%" viewBox="0 0 1442 1666"><g transform="matrix(5.81161,3.97433e-16,-6.45218e-16,7.15951,2324.82,-3741)"><g transform="matrix(0.172069,-9.55178e-18,1.5507e-17,0.139674,-962.716,352.678)"><path d="M3990.64,1216L3270.11,1632L3325.54,1664L3990.64,1280L4655.75,1664L4711.18,1632L3990.64,1216Z" style="fill:rgb(205,149,239);fill-rule:nonzero;"/></g><g transform="matrix(-0.0860346,0.120961,-0.149016,-0.0698372,372.472,299.043)"><path d="M3270.11,1632L3325.54,1664L3990.64,1280L4655.75,1664L4711.18,1632L3990.64,1216" style="fill:rgb(157,70,153);fill-rule:nonzero;"/></g><g transform="matrix(-0.0860346,-0.120961,0.149016,-0.0698372,-237.9,1264.47)"><path d="M3325.54,1664L3990.64,1280L4655.75,1664L4711.18,1632L3990.64,1216L3270.11,1632" style="fill:rgb(103,31,127);fill-rule:nonzero;"/></g><g transform="matrix(0.172069,-9.55178e-18,1.5507e-17,0.139674,-1703.17,401.843)"><path d="M7628.8,2080L8293.9,1695L8959.01,2080L8293.9,2464L7628.8,2080Z" style="fill:url(#_Radial1);fill-rule:nonzero;"/></g><g transform="matrix(0.172069,-9.55178e-18,1.5507e-17,0.139674,-1703.17,401.843)"><path d="M8294.9,1696L7628.8,2080L7628.8,1312L8293.9,928" style="fill:url(#_Radial2);fill-rule:nonzero;"/></g><g transform="matrix(0.172069,-9.55178e-18,1.5507e-17,0.139674,-1703.17,401.843)"><path d="M8293.9,928L8959.01,1312L8959.01,2080L8292.9,1696L8293.9,928Z" style="fill:url(#_Radial3);fill-rule:nonzero;"/></g><g transform="matrix(0.609671,-3.38436e-17,5.49438e-17,0.494891,-4977.78,-3906.57)"><path d="M7694.08,9329.63L7694.08,9140.88L7577.42,9262.27L7694.08,9329.63Z" style="fill:rgb(181,88,44);fill-rule:nonzero;"/></g><g transform="matrix(-0.609671,3.38436e-17,5.49438e-17,0.494891,4403.95,-3906.57)"><path d="M7694.08,9329.63L7694.08,9140.88L7577.42,9262.27L7694.08,9329.63Z" style="fill:rgb(255,148,45);fill-rule:nonzero;"/></g><g transform="matrix(0.15855,-8.80127e-18,1.42886e-17,0.1287,-1398.56,-535.417)"><circle cx="7348.5" cy="8805.59" r="142.17" style="fill:url(#_Linear4);"/></g></g><defs><radialGradient id="_Radial1" cx="0" cy="0" r="1" gradientUnits="userSpaceOnUse" gradientTransform="matrix(2.55721,757.105,-437.684,1.47833,8294.9,1704.84)"><stop offset="0" style="stop-color:rgb(219,138,251);stop-opacity:1"/><stop offset="0.57" style="stop-color:rgb(209,146,244);stop-opacity:1"/><stop offset="1" style="stop-color:rgb(204,149,241);stop-opacity:1"/></radialGradient><radialGradient id="_Radial2" cx="0" cy="0" r="1" gradientUnits="userSpaceOnUse" gradientTransform="matrix(-660.337,-381.246,381.246,-660.337,8293.9,1696)"><stop offset="0" style="stop-color:rgb(223,142,255);stop-opacity:1"/><stop offset="0.57" style="stop-color:rgb(176,89,187);stop-opacity:1"/><stop offset="1" style="stop-color:rgb(155,66,157);stop-opacity:1"/></radialGradient><radialGradient id="_Radial3" cx="0" cy="0" r="1" gradientUnits="userSpaceOnUse" gradientTransform="matrix(665.108,-378.492,378.492,665.108,8293.9,1696)"><stop offset="0" style="stop-color:rgb(223,142,255);stop-opacity:1"/><stop offset="0.57" style="stop-color:rgb(139,64,167);stop-opacity:1"/><stop offset="1" style="stop-color:rgb(102,29,128);stop-opacity:1"/></radialGradient><linearGradient id="_Linear4" x1="0" y1="0" x2="1" y2="0" gradientUnits="userSpaceOnUse" gradientTransform="matrix(122.451,-257.635,257.635,122.451,7276.68,8928.29)"><stop offset="0" style="stop-color:rgb(181,88,44);stop-opacity:1"/><stop offset="0.5" style="stop-color:rgb(255,148,45);stop-opacity:1"/><stop offset="1" style="stop-color:rgb(255,198,143);stop-opacity:1"/></linearGradient></defs></svg>