<svg xmlns="http://www.w3.org/2000/svg" width="100%" height="100%" viewBox="0 0 1442 1664"><g transform="matrix(2.97833,0,0,3.98836,2685.44,1924.48)"><g transform="matrix(0.335758,0,0,0.25073,-1999.63,-787.411)"><path d="M3990.64,1216L3270.11,1632L3325.54,1664L3990.64,1280L4655.75,1664L4711.18,1632L3990.64,1216Z" style="fill:rgb(184,107,186);"/></g><g transform="matrix(-0.167879,0.217138,-0.290775,-0.125365,605.721,-883.691)"><path d="M3270.11,1632L3325.54,1664L3990.64,1280L4655.75,1664L4711.18,1632L3990.64,1216" style="fill:rgb(125,39,147);"/></g><g transform="matrix(-0.167879,-0.217138,0.290775,-0.125365,-585.295,849.353)"><path d="M3325.54,1664L3990.64,1280L4655.75,1664L4711.18,1632L3990.64,1216L3270.11,1632" style="fill:rgb(102,1,140);"/></g><g transform="matrix(0.335758,0,0,0.25073,-3444.48,-699.154)"><path d="M7628.8,2080L8293.9,1695L8959.01,2080L8293.9,2464L7628.8,2080Z" style="fill:url(#_Radial1);"/></g><g transform="matrix(0.335758,0,0,0.25073,-3444.48,-699.154)"><path d="M8294.9,1696L7628.8,2080L7628.8,1312L8293.9,928" style="fill:url(#_Radial2);"/></g><g transform="matrix(0.335758,0,0,0.25073,-3444.48,-699.154)"><path d="M8293.9,928L8959.01,1312L8959.01,2080L8292.9,1696L8293.9,928Z" style="fill:url(#_Radial3);"/></g></g><g transform="matrix(3.43558,0,0,4.36447,-602.731,-3667.55)"><g transform="matrix(0.286249,-0.130093,0.43486,0.197632,-3954.89,393.994)"><path d="M4925.62,6738.04L5029.22,6738.04L5029.22,6806.23L4822.03,6806.23L4822.03,6601.66L4925.62,6601.66L4925.62,6738.04Z" style="fill:rgb(255,210,93);"/></g><g transform="matrix(0.535012,0.243148,-2.96991e-17,0.280764,-2253.99,-1950.1)"><rect x="4766.6" y="6633.66" width="166.277" height="96" style="fill:rgb(186,97,0);"/></g><g transform="matrix(0.535012,-0.243148,-1.25523e-17,0.280764,-2105.72,381.361)"><path d="M4766.6,6633.66L4766.6,6441.66L4822.03,6441.66L4822.03,6729.66L4655.75,6729.66L4655.75,6633.66L4766.6,6633.66Z" style="fill:rgb(250,151,0);"/></g><g transform="matrix(0.286249,-0.130093,0.43486,0.197632,-3895.59,259.227)"><path d="M4925.62,6601.66L4925.62,6806.23L4822.03,6806.23L4822.03,6669.85L4614.84,6669.85L4614.84,6601.66L4925.62,6601.66Z" style="fill:rgb(255,210,93);"/></g><g transform="matrix(0.535012,0.243148,-2.96991e-17,0.280764,-2165.03,-2071.39)"><rect x="4766.6" y="6633.66" width="110.851" height="96" style="fill:rgb(186,97,0);"/></g><g transform="matrix(0.535012,-0.243148,-1.25523e-17,0.280764,-2194.68,260.071)"><path d="M4822.03,6633.66L4822.03,6729.66L4766.6,6729.66L4766.6,6825.66L4711.18,6825.66L4711.18,6633.66L4822.03,6633.66Z" style="fill:rgb(250,151,0);"/></g><g transform="matrix(0.535012,0.243148,-2.96991e-17,0.280764,-2253.99,-2004.01)"><path d="M4822.03,6633.66L4932.88,6633.66L4932.88,6729.66L4766.6,6729.66L4766.6,6441.66L4822.03,6441.66L4822.03,6633.66Z" style="fill:rgb(186,97,0);"/></g><g transform="matrix(0.286249,-0.130093,0.43486,0.197632,-3925.24,353.564)"><rect x="4822.03" y="6601.66" width="103.593" height="136.381" style="fill:rgb(255,210,93);"/></g><g transform="matrix(0.535012,-0.243148,-1.25523e-17,0.280764,-2165.03,354.408)"><rect x="4766.6" y="6633.66" width="55.426" height="96" style="fill:rgb(250,151,0);"/></g><g transform="matrix(0.535012,-0.243148,-1.25523e-17,0.280764,-2105.72,273.548)"><rect x="4766.6" y="6633.66" width="55.426" height="96" style="fill:rgb(250,151,0);"/></g><g transform="matrix(0.286249,-0.130093,0.43486,0.197632,-3895.59,313.134)"><rect x="4822.03" y="6601.66" width="103.593" height="204.572" style="fill:rgb(255,210,93);"/></g><g transform="matrix(0.535012,0.243148,-2.96991e-17,0.280764,-2194.68,-2030.96)"><path d="M4877.45,6729.66L4766.6,6729.66L4766.6,6633.66L4932.88,6633.66L4932.88,6825.66L4877.45,6825.66L4877.45,6729.66Z" style="fill:rgb(186,97,0);"/></g></g><defs><radialGradient id="_Radial1" cx="0" cy="0" r="1" gradientUnits="userSpaceOnUse" gradientTransform="matrix(8.18545e-12,576,-576,8.18545e-12,8293.9,1696)"><stop offset="0" style="stop-color:rgb(188,163,255);stop-opacity:1"/><stop offset="1" style="stop-color:rgb(184,107,186);stop-opacity:1"/></radialGradient><radialGradient id="_Radial2" cx="0" cy="0" r="1" gradientUnits="userSpaceOnUse" gradientTransform="matrix(-498.831,-288,288,-498.831,8293.9,1696)"><stop offset="0" style="stop-color:rgb(170,137,255);stop-opacity:1"/><stop offset="0.43" style="stop-color:rgb(156,106,221);stop-opacity:1"/><stop offset="1" style="stop-color:rgb(125,38,146);stop-opacity:1"/></radialGradient><radialGradient id="_Radial3" cx="0" cy="0" r="1" gradientUnits="userSpaceOnUse" gradientTransform="matrix(498.831,-288,288,498.831,8293.9,1696)"><stop offset="0" style="stop-color:rgb(131,101,254);stop-opacity:1"/><stop offset="0.53" style="stop-color:rgb(110,28,171);stop-opacity:1"/><stop offset="1" style="stop-color:rgb(102,0,139);stop-opacity:1"/></radialGradient></defs></svg>