<svg xmlns="http://www.w3.org/2000/svg" viewBox="0 0 886.81 1024"><defs><radialGradient id="Unbenannter_Verlauf_12" cx="-195.95" cy="1024.05" fx="-195.95" fy="1024.05" r="1.12" gradientTransform="translate(-322211.61 62252.64) rotate(90) scale(315.08 -315.08)" gradientUnits="userSpaceOnUse"><stop offset="0" stop-color="#dedede"/><stop offset="0" stop-color="#d4d5d5"/><stop offset="1" stop-color="#8da6e5"/></radialGradient><radialGradient id="Unbenannter_Verlauf_2" cx="-195.95" cy="1024.06" fx="-195.95" fy="1024.06" r="1.12" gradientTransform="translate(108303.04 -309787.04) rotate(-150) scale(315.08 -315.08)" gradientUnits="userSpaceOnUse"><stop offset="0" stop-color="#bfbfbf"/><stop offset="1" stop-color="#575f9c"/></radialGradient><radialGradient id="Unbenannter_Verlauf_3" cx="-195.96" cy="1024.06" fx="-195.96" fy="1024.06" r="1.12" gradientTransform="translate(215240.7 249070.57) rotate(-30) scale(315.08 -315.08)" gradientUnits="userSpaceOnUse"><stop offset="0" stop-color="#9f9f9f"/><stop offset="1" stop-color="#331d7f"/></radialGradient></defs><g><path d="M443.4,0L0,256l34.11,19.69L443.4,39.38l409.3,236.31,34.11-19.69L443.4,0Z" fill="#8da6e5" fill-rule="evenodd"/><path d="M886.81,256l-34.11,19.69v472.61s-409.29,236.31-409.29,236.31v39.39s443.4-256,443.4-256" fill="#575f9c" fill-rule="evenodd"/><path d="M443.41,984.61L34.12,748.31V275.7S0,256,0,256V768s443.4,256,443.4,256" fill="#2f1765" fill-rule="evenodd"/><path d="M34.12,748.3l409.29-236.31,409.3,236.31-409.3,236.31L34.12,748.3Z" fill="url(#Unbenannter_Verlauf_12)" fill-rule="evenodd"/><path d="M443.41,512L34.12,748.3V275.69L443.41,39.38" fill="url(#Unbenannter_Verlauf_2)" fill-rule="evenodd"/><path d="M443.41,39.38l409.3,236.31v472.61l-409.3-236.31V39.38Z" fill="url(#Unbenannter_Verlauf_3)" fill-rule="evenodd"/></g><g><g><path d="M443.4,200.45l-47.48,27.41,47.48,27.41,47.48-27.41-47.48-27.41Z" fill="#ffefa7" fill-rule="evenodd"/><path d="M443.4,200.45l47.48,27.41-47.48,27.41-47.48-27.41,47.48-27.41Zm0,.23l-47.08,27.18,47.08,27.18,47.06-27.18-47.06-27.18Z" fill="#6d00ff" fill-rule="evenodd"/></g><g><path d="M395.92,227.86V501.98l47.48,27.41V255.27l-47.48-27.41Z" fill="#9a6412" fill-rule="evenodd"/><path d="M395.92,227.86l47.48,27.41v274.12l-47.48-27.41V227.86Zm.2,.35V501.87l47.08,27.18V255.39l-47.08-27.18Z" fill="#6d00ff" fill-rule="evenodd"/></g><g><path d="M490.89,227.86V501.98l-47.48,27.41V255.27l47.48-27.41Z" fill="#edbb37" fill-rule="evenodd"/><path d="M490.89,227.86V501.98l-47.48,27.41V255.27l47.48-27.41Zm-.21,.35l-47.07,27.18v273.66l47.07-27.18V228.21Z" fill="#6d00ff" fill-rule="evenodd"/></g><g><path d="M395.92,282.68l-189.92,109.65,47.48,27.41,142.44-82.24v-54.82Z" fill="#ffefa7" fill-rule="evenodd"/><path d="M395.92,282.68v54.82l-142.44,82.24-47.48-27.41,189.92-109.65Zm-.2,.35l-189.32,109.3,47.08,27.18,142.24-82.12v-54.36Z" fill="#6d00ff" fill-rule="evenodd"/></g><g><path d="M490.89,282.68l189.92,109.65-47.5,27.41-142.42-82.24v-54.82Z" fill="#ffefa7" fill-rule="evenodd"/><path d="M490.89,282.68l189.92,109.65-47.5,27.41-142.42-82.24v-54.82Zm.21,.35v54.36l142.2,82.12,47.12-27.18-189.32-109.3Z" fill="#6d00ff" fill-rule="evenodd"/></g><g><path d="M206,392.33l47.48,27.41v219.3l189.92,109.65v54.82l-237.4-137.06V392.33Z" fill="#9a6412" fill-rule="evenodd"/><path d="M206,392.33l47.48,27.41v219.3l189.92,109.65v54.82l-237.4-137.06V392.33Zm.2,.35v273.66l237,136.83v-54.36l-189.92-109.65v-219.3l-47.08-27.18Z" fill="#6d00ff" fill-rule="evenodd"/></g><g><path d="M490.89,337.51l142.42,82.24v219.3l-47.46-27.41v-164.47l-94.96-54.82v-54.82Z" fill="#9a6412" fill-rule="evenodd"/><path d="M490.89,337.51l142.42,82.24v219.3l-47.46-27.41v-164.47l-94.96-54.82v-54.82Zm.21,.35v54.36l94.96,54.82v164.47l47.07,27.18v-218.83l-142.03-82.01Z" fill="#6d00ff" fill-rule="evenodd"/></g><g><path d="M395.92,337.51v54.82l-94.96,54.82v164.47l-47.48,27.41v-219.3l142.44-82.24Z" fill="#eec044" fill-rule="evenodd"/><path d="M395.92,337.51v54.82l-94.96,54.82v164.47l-47.48,27.41v-219.3l142.44-82.24Zm-.2,.35l-142.04,82.01v218.83l47.08-27.18v-164.47l94.96-54.82v-54.36Z" fill="#6d00ff" fill-rule="evenodd"/></g><g><path d="M300.97,611.63l142.44,82.24,142.44-82.24,47.46,27.41-189.9,109.65-189.92-109.65,47.48-27.41Z" fill="#ffefa7" fill-rule="evenodd"/><path d="M300.97,611.63l142.44,82.24,142.44-82.24,47.46,27.41-189.9,109.65-189.92-109.65,47.48-27.41Zm0,.23l-47.08,27.18,189.51,109.42,189.51-109.42-47.07-27.18-142.44,82.24-142.44-82.24Z" fill="#6d00ff" fill-rule="evenodd"/></g><g><path d="M680.8,392.33v274.12l-237.4,137.06v-54.82l189.9-109.65v-219.3l47.5-27.41Z" fill="#edbb37" fill-rule="evenodd"/><path d="M680.8,392.33v274.12l-237.4,137.06v-54.82l189.9-109.65v-219.3l47.5-27.41Zm-.21,.35l-47.07,27.18v219.3l-189.91,109.65v54.36l236.99-136.83V392.68Z" fill="#6d00ff" fill-rule="evenodd"/></g></g></svg>