<svg xmlns="http://www.w3.org/2000/svg" width="100%" height="100%" viewBox="0 0 1442 1664"><g transform="matrix(2.97833,0,0,3.98836,2685.44,1924.48)"><g transform="matrix(0.335758,0,0,0.25073,-1999.63,-787.411)"><path d="M3990.64,1216L3270.11,1632L3325.54,1664L3990.64,1280L4655.75,1664L4711.18,1632L3990.64,1216Z" style="fill:rgb(255,163,28);"/></g><g transform="matrix(-0.167879,0.217138,-0.290775,-0.125365,605.721,-883.691)"><path d="M3270.11,1632L3325.54,1664L3990.64,1280L4655.75,1664L4711.18,1632L3990.64,1216" style="fill:rgb(227,119,0);"/></g><g transform="matrix(-0.167879,-0.217138,0.290775,-0.125365,-585.295,849.353)"><path d="M3325.54,1664L3990.64,1280L4655.75,1664L4711.18,1632L3990.64,1216L3270.11,1632" style="fill:rgb(176,70,0);"/></g><g transform="matrix(0.335758,0,0,0.25073,-3444.48,-699.154)"><path d="M7628.8,2080L8293.9,1695L8959.01,2080L8293.9,2464L7628.8,2080Z" style="fill:url(#_Radial1);"/></g><g transform="matrix(0.335758,0,0,0.25073,-3444.48,-699.154)"><path d="M8294.9,1696L7628.8,2080L7628.8,1312L8293.9,928" style="fill:url(#_Radial2);"/></g><g transform="matrix(0.335758,0,0,0.25073,-3444.48,-699.154)"><path d="M8293.9,928L8959.01,1312L8959.01,2080L8292.9,1696L8293.9,928Z" style="fill:url(#_Radial3);"/></g></g><g transform="matrix(3.43558,0,0,4.36447,219.647,410.217)"><g transform="matrix(0.385501,-0.1752,0.585639,0.266157,-5539.06,-870.066)"><rect x="4718.44" y="6601.66" width="207.186" height="68.191" style="fill:rgb(255,221,140);"/></g><g transform="matrix(0.720517,-0.327455,-1.69046e-17,0.378113,-3208.46,-887.079)"><rect x="4711.18" y="6633.66" width="110.851" height="96" style="fill:rgb(255,199,64);"/></g><g transform="matrix(0.385501,-0.1752,0.585639,0.266157,-5698.8,-870.066)"><rect x="4822.03" y="6601.66" width="103.593" height="136.381" style="fill:rgb(255,221,140);"/></g><g transform="matrix(0.720517,0.327455,-3.99967e-17,0.378113,-3408.14,-4026.93)"><rect x="4766.6" y="6633.66" width="110.851" height="96" style="fill:rgb(255,117,0);"/></g><g transform="matrix(0.720517,0.327455,-3.99967e-17,0.378113,-3328.27,-3918.03)"><rect x="4766.6" y="6537.66" width="55.426" height="192" style="fill:rgb(255,117,0);"/></g><g transform="matrix(0.720517,-0.327455,-1.69046e-17,0.378113,-3288.33,-778.183)"><rect x="4766.6" y="6537.66" width="55.426" height="192" style="fill:rgb(255,162,0);"/></g><g transform="matrix(0.720517,0.327455,-3.99967e-17,0.378113,-3328.27,-4026.93)"><rect x="4766.6" y="6537.66" width="55.426" height="192" style="fill:rgb(255,162,0);"/></g><g transform="matrix(0.720517,-0.327455,-1.69046e-17,0.378113,-3288.33,-887.079)"><rect x="4766.6" y="6537.66" width="55.426" height="192" style="fill:rgb(255,199,64);"/></g><g transform="matrix(0.385501,-0.1752,0.585639,0.266157,-5618.93,-906.365)"><rect x="4822.03" y="6601.66" width="103.593" height="68.191" style="fill:rgb(255,221,140);"/></g><g transform="matrix(0.385501,-0.1752,0.585639,0.266157,-5579,-815.618)"><rect x="4822.03" y="6601.66" width="103.593" height="136.381" style="fill:rgb(255,221,140);"/></g><g transform="matrix(0.720517,0.327455,-3.99967e-17,0.378113,-3288.33,-3972.48)"><rect x="4766.6" y="6633.66" width="110.851" height="96" style="fill:rgb(255,117,0);"/></g><g transform="matrix(0.720517,-0.327455,-1.69046e-17,0.378113,-3208.46,-814.481)"><rect x="4766.6" y="6633.66" width="55.426" height="96" style="fill:rgb(255,162,0);"/></g><g transform="matrix(0.385501,-0.1752,0.585639,0.266157,-5658.87,-815.618)"><rect x="4718.44" y="6601.66" width="207.186" height="68.191" style="fill:rgb(255,221,140);"/></g><g transform="matrix(0.720517,-0.327455,-1.69046e-17,0.378113,-3328.27,-832.631)"><rect x="4711.18" y="6633.66" width="110.851" height="96" style="fill:rgb(255,162,0);"/></g><g transform="matrix(0.720517,0.327455,-3.99967e-17,0.378113,-3408.14,-3954.33)"><rect x="4766.6" y="6633.66" width="55.426" height="96" style="fill:rgb(255,117,0);"/></g></g><defs><radialGradient id="_Radial1" cx="0" cy="0" r="1" gradientUnits="userSpaceOnUse" gradientTransform="matrix(8.18545e-12,576,-576,8.18545e-12,8293.9,1696)"><stop offset="0" style="stop-color:rgb(122,11,0);stop-opacity:1"/><stop offset="1" style="stop-color:rgb(255,163,28);stop-opacity:1"/></radialGradient><radialGradient id="_Radial2" cx="0" cy="0" r="1" gradientUnits="userSpaceOnUse" gradientTransform="matrix(-498.831,-288,288,-498.831,8293.9,1696)"><stop offset="0" style="stop-color:rgb(82,27,0);stop-opacity:1"/><stop offset="0.43" style="stop-color:rgb(127,56,0);stop-opacity:1"/><stop offset="1" style="stop-color:rgb(227,119,0);stop-opacity:1"/></radialGradient><radialGradient id="_Radial3" cx="0" cy="0" r="1" gradientUnits="userSpaceOnUse" gradientTransform="matrix(498.831,-288,288,498.831,8293.9,1696)"><stop offset="0" style="stop-color:rgb(118,42,26);stop-opacity:1"/><stop offset="0.53" style="stop-color:rgb(160,62,7);stop-opacity:1"/><stop offset="1" style="stop-color:rgb(176,70,0);stop-opacity:1"/></radialGradient></defs></svg>