<svg xmlns="http://www.w3.org/2000/svg" width="100%" height="100%" viewBox="0 0 1442 1664"><g transform="matrix(1.84785,0,0,1.53745,1624.05,1304.28)"><g transform="matrix(0.54117,0,0,0.650427,-2648.58,-1639.26)"><path d="M3990.64,1216L3270.11,1632L3325.54,1664L3990.64,1280L4655.75,1664L4711.18,1632L3990.64,1216Z" style="fill:rgb(201,133,127);"/></g><g transform="matrix(-0.270585,0.563286,-0.468667,-0.325214,1550.68,-1889.02)"><path d="M3270.11,1632L3325.54,1664L3990.64,1280L4655.75,1664L4711.18,1632L3990.64,1216" style="fill:rgb(122,43,43);"/></g><g transform="matrix(-0.270585,-0.563286,0.468667,-0.325214,-368.978,2606.73)"><path d="M3325.54,1664L3990.64,1280L4655.75,1664L4711.18,1632L3990.64,1216L3270.11,1632" style="fill:rgb(97,74,75);"/></g><g transform="matrix(0.54117,0,0,0.650427,-4977.37,-1410.31)"><path d="M7628.8,2080L8293.9,1696L8959.01,2080L8293.9,2464L7628.8,2080Z" style="fill:url(#_Radial1);"/></g><g transform="matrix(0.54117,0,0,0.650427,-4977.37,-1410.31)"><path d="M8293.9,1696L7628.8,2080L7628.8,1312L8293.9,928" style="fill:url(#_Radial2);"/></g><g transform="matrix(0.54117,0,0,0.650427,-4977.37,-1410.31)"><path d="M8293.9,928L8959.01,1312L8959.01,2080L8293.9,1696L8293.9,928Z" style="fill:url(#_Radial3);"/></g></g><g transform="matrix(2.98818,1.66895,-1.38702,2.4834,-3674.37,-1829.49)"><g transform="matrix(0.540889,-0.0209865,0.0174613,0.650088,-1054.88,-767.441)"><path d="M4520.81,1614.04L4805.48,1467.5L4644.06,1363.61L4647.14,1299.69L4916.23,1472.87L4574.08,1648.14L4520.81,1614.04Z" style="fill:rgb(81,48,48);"/></g><g transform="matrix(-0.253431,0.574697,-0.478161,-0.304596,3368.75,-2189.76)"><path d="M4520.28,1612.28L4805.48,1467.5L4644.06,1363.61L4647.14,1299.69L4916.23,1472.87L4573.96,1647.13L4520.28,1612.28Z" style="fill:rgb(202,160,160);"/></g><g transform="matrix(-0.282488,-0.554781,0.461591,-0.339519,2161.92,3143.92)"><path d="M4522,1615L4805.48,1467.5L4644.06,1363.61L4647.14,1299.69L4916.23,1472.87L4576.05,1649.27L4522,1615Z" style="fill:rgb(151,122,122);"/></g></g><defs><radialGradient id="_Radial1" cx="0" cy="0" r="1" gradientUnits="userSpaceOnUse" gradientTransform="matrix(8.18545e-12,576,-576,8.18545e-12,8293.9,1696)"><stop offset="0" style="stop-color:rgb(250,185,114);stop-opacity:1"/><stop offset="1" style="stop-color:rgb(201,133,127);stop-opacity:1"/></radialGradient><radialGradient id="_Radial2" cx="0" cy="0" r="1" gradientUnits="userSpaceOnUse" gradientTransform="matrix(-498.831,-288,288,-498.831,8293.9,1696)"><stop offset="0" style="stop-color:rgb(255,164,113);stop-opacity:1"/><stop offset="1" style="stop-color:rgb(122,43,43);stop-opacity:1"/></radialGradient><radialGradient id="_Radial3" cx="0" cy="0" r="1" gradientUnits="userSpaceOnUse" gradientTransform="matrix(498.831,-288,288,498.831,8293.9,1696)"><stop offset="0" style="stop-color:rgb(226,132,49);stop-opacity:1"/><stop offset="1" style="stop-color:rgb(97,74,75);stop-opacity:1"/></radialGradient></defs></svg>