<svg xmlns="http://www.w3.org/2000/svg" width="100%" height="100%" viewBox="0 0 1442 1664"><g transform="matrix(1.84785,0,0,1.53745,1624.05,1304.28)"><g transform="matrix(0.54117,0,0,0.650427,-2648.58,-1639.26)"><path d="M3990.64,1216L3270.11,1632L3325.54,1664L3990.64,1280L4655.75,1664L4711.18,1632L3990.64,1216Z" style="fill:rgb(239,21,35);"/></g><g transform="matrix(-0.270585,0.563286,-0.468667,-0.325214,1550.68,-1889.02)"><path d="M3270.11,1632L3325.54,1664L3990.64,1280L4655.75,1664L4711.18,1632L3990.64,1216" style="fill:rgb(172,0,22);"/></g><g transform="matrix(-0.270585,-0.563286,0.468667,-0.325214,-368.978,2606.73)"><path d="M3325.54,1664L3990.64,1280L4655.75,1664L4711.18,1632L3990.64,1216L3270.11,1632" style="fill:rgb(93,2,15);"/></g><g transform="matrix(0.54117,0,0,0.650427,-4977.37,-1410.31)"><path d="M7628.8,2080L8293.9,1695L8959.01,2080L8293.9,2464L7628.8,2080Z" style="fill:url(#_Radial1);"/></g><g transform="matrix(0.54117,0,0,0.650427,-4977.37,-1410.31)"><path d="M8294.9,1696L7628.8,2080L7628.8,1312L8293.9,928" style="fill:url(#_Radial2);"/></g><g transform="matrix(0.54117,0,0,0.650427,-4977.37,-1410.31)"><path d="M8293.9,928L8959.01,1312L8959.01,2080L8292.9,1696L8293.9,928Z" style="fill:url(#_Radial3);"/></g></g><g transform="matrix(1,0,0,1,-6631.13,-4566.1)"><path d="M7205.24,5823.87C7205.24,5823.87 6998.94,5363.63 6998.94,5362.59C6998.94,5361.56 7160.32,5218.41 7160.32,5218.41L7427.06,5824.02L7205.24,5823.87Z" style="fill:rgb(231,231,231);"/></g><g transform="matrix(1,0,0,1,-6631.13,-4566.1)"><path d="M7205.24,5823.87L7408.76,5074.98L7604.41,4893.6L7427.06,5824.02L7205.24,5823.87Z" style="fill:white;"/></g><defs><radialGradient id="_Radial1" cx="0" cy="0" r="1" gradientUnits="userSpaceOnUse" gradientTransform="matrix(8.18545e-12,576,-576,8.18545e-12,8293.9,1696)"><stop offset="0" style="stop-color:rgb(213,34,39);stop-opacity:1"/><stop offset="1" style="stop-color:rgb(198,34,44);stop-opacity:1"/></radialGradient><radialGradient id="_Radial2" cx="0" cy="0" r="1" gradientUnits="userSpaceOnUse" gradientTransform="matrix(-498.831,-288,288,-498.831,8293.9,1696)"><stop offset="0" style="stop-color:rgb(214,35,39);stop-opacity:1"/><stop offset="0.43" style="stop-color:rgb(188,30,27);stop-opacity:1"/><stop offset="1" style="stop-color:rgb(131,19,0);stop-opacity:1"/></radialGradient><radialGradient id="_Radial3" cx="0" cy="0" r="1" gradientUnits="userSpaceOnUse" gradientTransform="matrix(498.831,-288,288,498.831,8293.9,1696)"><stop offset="0" style="stop-color:rgb(215,35,39);stop-opacity:1"/><stop offset="0.53" style="stop-color:rgb(127,11,22);stop-opacity:1"/><stop offset="1" style="stop-color:rgb(93,2,15);stop-opacity:1"/></radialGradient></defs></svg>