<svg xmlns="http://www.w3.org/2000/svg" width="100%" height="100%" viewBox="0 0 1442 1664"><g transform="matrix(3.43558,0,0,4.36447,-4921.98,-1252.28)"><g transform="matrix(0.537856,0,0,0.352266,1905.37,585.768)"><g transform="matrix(0.54117,0,0,0.650427,-2648.58,-1639.26)"><path d="M3990.64,1216L3270.11,1632L3325.54,1664L3990.64,1280L4655.75,1664L4711.18,1632L3990.64,1216Z" style="fill:rgb(107,107,107);"/></g><g transform="matrix(-0.270585,0.563286,-0.468667,-0.325214,1550.68,-1889.02)"><path d="M3270.11,1632L3325.54,1664L3990.64,1280L4655.75,1664L4711.18,1632L3990.64,1216" style="fill:rgb(51,51,51);"/></g><g transform="matrix(-0.270585,-0.563286,0.468667,-0.325214,-368.978,2606.73)"><path d="M3325.54,1664L3990.64,1280L4655.75,1664L4711.18,1632L3990.64,1216L3270.11,1632" style="fill:rgb(26,26,26);"/></g><g transform="matrix(0.54117,0,0,0.650427,-4977.37,-1410.31)"><path d="M7628.8,2080L8293.9,1696L8959.01,2080L8293.9,2464L7628.8,2080Z" style="fill:url(#_Radial1);"/></g><g transform="matrix(0.54117,0,0,0.650427,-4977.37,-1410.31)"><path d="M8293.9,1696L7628.8,2080L7628.8,1312L8293.9,928" style="fill:url(#_Radial2);"/></g><g transform="matrix(0.54117,0,0,0.650427,-4977.37,-1410.31)"><path d="M8293.9,928L8959.01,1312L8959.01,2080L8293.9,1696L8293.9,928Z" style="fill:url(#_Radial3);"/></g></g></g><g transform="matrix(1.24395,8.50689e-17,-1.12105e-16,1.24395,-8775.28,-11853.9)"><path d="M7301.03,10006.1L7411.89,9942.1L7522.74,10006.1L7411.89,10070.1L7301.03,10006.1Z" style="fill:white;"/></g><g transform="matrix(0.621976,1.07729,-1.07729,0.621976,6545.29,-13495.7)"><path d="M7301.03,10006.1L7411.89,9942.1L7522.74,10006.1L7411.89,10070.1L7301.03,10006.1Z" style="fill:rgb(66,66,66);"/></g><g transform="matrix(0.621976,-1.07729,1.07729,0.621976,-14875.8,2473.81)"><path d="M7301.03,10006.1L7411.89,9942.1L7522.74,10006.1L7411.89,10070.1L7301.03,10006.1Z" style="fill:rgb(178,178,178);"/></g><g transform="matrix(1.24395,8.50689e-17,-1.12105e-16,1.24395,-8775.28,-11535.5)"><path d="M7301.03,10006.1L7411.89,9942.1L7522.74,10006.1L7411.89,10070.1L7301.03,10006.1Z" style="fill:white;"/></g><g transform="matrix(0.76568,5.23618e-17,-6.90033e-17,0.76568,-5230.38,-6749.85)"><path d="M7301.03,10006.1L7411.89,9942.1L7522.74,10006.1L7411.89,10070.1L7301.03,10006.1Z" style="fill:rgb(69,69,69);"/></g><g transform="matrix(0.621976,1.07729,-1.07729,0.621976,6545.29,-13177.3)"><path d="M7301.03,10006.1L7411.89,9942.1L7522.74,10006.1L7411.89,10070.1L7301.03,10006.1Z" style="fill:rgb(66,66,66);"/></g><g transform="matrix(0.621976,-1.07729,1.07729,0.621976,-14875.8,2792.26)"><path d="M7301.03,10006.1L7411.89,9942.1L7522.74,10006.1L7411.89,10070.1L7301.03,10006.1Z" style="fill:rgb(178,178,178);"/></g><g transform="matrix(1.24395,8.50689e-17,-1.12105e-16,1.24395,-8499.49,-11853.9)"><path d="M7301.03,10006.1L7411.89,9942.1L7522.74,10006.1L7411.89,10070.1L7301.03,10006.1Z" style="fill:white;"/></g><g transform="matrix(0.76568,5.23618e-17,-6.90033e-17,0.76568,-4954.6,-7068.31)"><path d="M7301.03,10006.1L7411.89,9942.1L7522.74,10006.1L7411.89,10070.1L7301.03,10006.1Z" style="fill:rgb(69,69,69);"/></g><g transform="matrix(0.621976,1.07729,-1.07729,0.621976,6821.08,-13495.7)"><path d="M7301.03,10006.1L7411.89,9942.1L7522.74,10006.1L7411.89,10070.1L7301.03,10006.1Z" style="fill:rgb(66,66,66);"/></g><g transform="matrix(0.621976,-1.07729,1.07729,0.621976,-14600,2473.81)"><path d="M7301.03,10006.1L7411.89,9942.1L7522.74,10006.1L7411.89,10070.1L7301.03,10006.1Z" style="fill:rgb(178,178,178);"/></g><g transform="matrix(1.24395,8.50689e-17,-1.12105e-16,1.24395,-8499.49,-11535.5)"><path d="M7301.03,10006.1L7411.89,9942.1L7522.74,10006.1L7411.89,10070.1L7301.03,10006.1Z" style="fill:white;"/></g><g transform="matrix(0.621976,1.07729,-1.07729,0.621976,6821.08,-13177.3)"><path d="M7301.03,10006.1L7411.89,9942.1L7522.74,10006.1L7411.89,10070.1L7301.03,10006.1Z" style="fill:rgb(66,66,66);"/></g><g transform="matrix(0.621976,-1.07729,1.07729,0.621976,-14600,2792.26)"><path d="M7301.03,10006.1L7411.89,9942.1L7522.74,10006.1L7411.89,10070.1L7301.03,10006.1Z" style="fill:rgb(178,178,178);"/></g><g transform="matrix(1.24395,8.50689e-17,-1.12105e-16,1.24395,-8223.7,-11853.9)"><path d="M7301.03,10006.1L7411.89,9942.1L7522.74,10006.1L7411.89,10070.1L7301.03,10006.1Z" style="fill:white;"/></g><g transform="matrix(0.76568,5.23618e-17,-6.90033e-17,0.76568,-4678.81,-7068.31)"><path d="M7301.03,10006.1L7411.89,9942.1L7522.74,10006.1L7411.89,10070.1L7301.03,10006.1Z" style="fill:rgb(69,69,69);"/></g><g transform="matrix(0.621976,1.07729,-1.07729,0.621976,7096.86,-13495.7)"><path d="M7301.03,10006.1L7411.89,9942.1L7522.74,10006.1L7411.89,10070.1L7301.03,10006.1Z" style="fill:rgb(66,66,66);"/></g><g transform="matrix(0.621976,-1.07729,1.07729,0.621976,-14324.2,2473.81)"><path d="M7301.03,10006.1L7411.89,9942.1L7522.74,10006.1L7411.89,10070.1L7301.03,10006.1Z" style="fill:rgb(178,178,178);"/></g><g transform="matrix(1.24395,8.50689e-17,-1.12105e-16,1.24395,-8223.7,-11535.5)"><path d="M7301.03,10006.1L7411.89,9942.1L7522.74,10006.1L7411.89,10070.1L7301.03,10006.1Z" style="fill:white;"/></g><g transform="matrix(0.621976,1.07729,-1.07729,0.621976,7096.86,-13177.3)"><path d="M7301.03,10006.1L7411.89,9942.1L7522.74,10006.1L7411.89,10070.1L7301.03,10006.1Z" style="fill:rgb(66,66,66);"/></g><g transform="matrix(0.621976,-1.07729,1.07729,0.621976,-14324.2,2792.26)"><path d="M7301.03,10006.1L7411.89,9942.1L7522.74,10006.1L7411.89,10070.1L7301.03,10006.1Z" style="fill:rgb(178,178,178);"/></g><defs><radialGradient id="_Radial1" cx="0" cy="0" r="1" gradientUnits="userSpaceOnUse" gradientTransform="matrix(8.18545e-12,576,-576,8.18545e-12,8293.9,1696)"><stop offset="0" style="stop-color:rgb(204,204,204);stop-opacity:1"/><stop offset="1" style="stop-color:rgb(107,107,107);stop-opacity:1"/></radialGradient><radialGradient id="_Radial2" cx="0" cy="0" r="1" gradientUnits="userSpaceOnUse" gradientTransform="matrix(-498.831,-288,288,-498.831,8293.9,1696)"><stop offset="0" style="stop-color:rgb(165,165,165);stop-opacity:1"/><stop offset="1" style="stop-color:rgb(51,51,51);stop-opacity:1"/></radialGradient><radialGradient id="_Radial3" cx="0" cy="0" r="1" gradientUnits="userSpaceOnUse" gradientTransform="matrix(498.831,-288,288,498.831,8293.9,1696)"><stop offset="0" style="stop-color:rgb(115,115,115);stop-opacity:1"/><stop offset="1" style="stop-color:rgb(26,26,26);stop-opacity:1"/></radialGradient></defs></svg>