<svg xmlns="http://www.w3.org/2000/svg" width="100%" height="100%" viewBox="0 0 1442 1664"><g transform="matrix(1.84785,0,0,1.53745,1624.05,1304.28)"><g transform="matrix(0.541169,0,0,0.650428,-2648.57,-1639.26)"><path d="M3990.64,1216L3270.11,1632L3325.54,1664L3990.64,1280L4655.75,1664L4711.18,1632L3990.64,1216Z" style="fill:rgb(245,173,231);"/></g><g transform="matrix(-0.270585,0.563287,-0.468667,-0.325214,1550.68,-1889.02)"><path d="M3270.11,1632L3325.54,1664L3990.64,1280L4655.75,1664L4711.18,1632L3990.64,1216" style="fill:rgb(193,100,162);"/></g><g transform="matrix(-0.270585,-0.563287,0.468667,-0.325214,-368.977,2606.73)"><path d="M3325.54,1664L3990.64,1280L4655.75,1664L4711.18,1632L3990.64,1216L3270.11,1632" style="fill:rgb(128,60,86);"/></g><g transform="matrix(0.541169,0,0,0.650428,-4977.36,-1410.31)"><path d="M7628.8,2080L8293.9,1696L8959.01,2080L8293.9,2464L7628.8,2080Z" style="fill:url(#_Radial1);"/></g><g transform="matrix(0.541169,0,0,0.650428,-4977.36,-1410.31)"><path d="M8293.9,1696L7628.8,2080L7628.8,1312L8293.9,928" style="fill:url(#_Radial2);"/></g><g transform="matrix(0.541169,0,0,0.650428,-4977.36,-1410.31)"><path d="M8293.9,928L8959.01,1312L8959.01,2080L8293.9,1696L8293.9,928Z" style="fill:url(#_Radial3);"/></g><g transform="matrix(0.541169,0,0,0.650428,-878.886,-848.34)"><path d="M425.344,1194.32L300.088,1122L300.088,688.097L425.344,760.414L425.344,1194.32Z" style="fill:rgb(0,116,81);"/></g><g transform="matrix(0.541169,0,0,0.650428,-878.886,-848.34)"><path d="M675.857,615.78L801.114,688.097L550.601,832.731L550.601,1122L425.344,1194.32L425.344,760.414L675.857,615.78Z" style="fill:rgb(0,185,129);"/></g><g transform="matrix(0.541169,0,0,0.650428,-878.886,-848.34)"><path d="M550.601,543.463L675.857,615.78L425.344,760.414L300.088,688.097L550.601,543.463Z" style="fill:rgb(0,215,150);"/></g><g transform="matrix(0.541169,0,0,0.650428,-878.886,-848.34)"><path d="M801.114,1122.11L801.114,1266.74L550.601,1122.11L550.601,977.474L801.114,1122.11Z" style="fill:rgb(128,60,86);"/></g><g transform="matrix(0.541169,0,0,0.650428,-878.886,-848.34)"><path d="M926.37,615.78L926.37,905.047L801.114,977.474L801.114,688.097L550.601,543.463L550.601,398.829L926.37,615.78Z" style="fill:rgb(52,73,94);"/></g><g transform="matrix(0.541169,0,0,0.650428,-878.886,-848.34)"><path d="M1176.98,905.102L1176.98,1049.74L801.114,1266.74L801.114,1122.11L1176.98,905.102Z" style="fill:rgb(193,100,162);"/></g><g transform="matrix(0.541169,0,0,0.650428,-878.886,-848.34)"><path d="M1051.63,832.841L926.37,905.157L926.37,615.78L1051.63,543.463L1051.63,832.841Z" style="fill:rgb(79,111,143);"/></g><g transform="matrix(0.541169,0,0,0.650428,-878.886,-848.34)"><path d="M1051.63,543.463L926.37,615.78L550.601,398.829L675.857,326.513L1051.63,543.463Z" style="fill:rgb(122,152,181);"/></g><g transform="matrix(0.541169,0,0,0.650428,-878.886,-848.34)"><path d="M801.114,977.474L1051.72,832.786L1176.98,905.102L801.114,1122.11L550.601,977.474L550.601,832.841L801.114,977.474Z" style="fill:rgb(245,173,231);"/></g></g><defs><radialGradient id="_Radial1" cx="0" cy="0" r="1" gradientUnits="userSpaceOnUse" gradientTransform="matrix(8.18545e-12,576,-576,8.18545e-12,8293.9,1696)"><stop offset="0" style="stop-color:white;stop-opacity:1"/><stop offset="1" style="stop-color:rgb(245,173,231);stop-opacity:1"/></radialGradient><radialGradient id="_Radial2" cx="0" cy="0" r="1" gradientUnits="userSpaceOnUse" gradientTransform="matrix(-498.831,-288,288,-498.831,8293.9,1696)"><stop offset="0" style="stop-color:rgb(240,223,236);stop-opacity:1"/><stop offset="1" style="stop-color:rgb(193,100,162);stop-opacity:1"/></radialGradient><radialGradient id="_Radial3" cx="0" cy="0" r="1" gradientUnits="userSpaceOnUse" gradientTransform="matrix(498.831,-288,288,498.831,8293.9,1696)"><stop offset="0" style="stop-color:rgb(240,185,234);stop-opacity:1"/><stop offset="1" style="stop-color:rgb(128,60,86);stop-opacity:1"/></radialGradient></defs></svg>