<svg xmlns="http://www.w3.org/2000/svg" viewBox="0 0 887.67 1024"><defs><clipPath id="clippath"><polygon points="34.34 748.27 443.84 511.49 853.33 748.27 443.84 985.05 34.34 748.27" fill="none"/></clipPath><radialGradient id="Unbenannter_Verlauf_11" cx="-196.5" cy="822.99" fx="-196.5" fy="822.99" r=".62" gradientTransform="translate(261827.17 1095270.09) scale(1330.22 -1330.22)" gradientUnits="userSpaceOnUse"><stop offset="0" stop-color="#ff8e68"/><stop offset=".43" stop-color="#ff6f4f"/><stop offset="1" stop-color="#ff2a18"/></radialGradient><clipPath id="clippath-1"><polyline points="444.35 512 34.34 748.27 34.34 275.73 443.84 38.95" fill="none"/></clipPath><radialGradient id="Unbenannter_Verlauf_10" cx="-196.93" cy="821.65" fx="-196.93" fy="821.65" r=".62" gradientTransform="translate(113875.21 473784) scale(576 -576)" gradientUnits="userSpaceOnUse"><stop offset="0" stop-color="#ffb39b"/><stop offset=".48" stop-color="#f88476"/><stop offset="1" stop-color="#e40012"/></radialGradient><clipPath id="clippath-2"><polygon points="443.84 38.95 853.33 275.73 853.33 748.27 443.32 512 443.84 38.95" fill="none"/></clipPath><radialGradient id="Unbenannter_Verlauf_9" cx="-196.93" cy="821.65" fx="-196.93" fy="821.65" r=".62" gradientTransform="translate(113875.21 473784) scale(576 -576)" gradientUnits="userSpaceOnUse"><stop offset="0" stop-color="#ff6632"/><stop offset=".48" stop-color="#e44b2b"/><stop offset="1" stop-color="#990018"/></radialGradient></defs><polygon points="443.84 0 0 255.74 34.34 275.73 443.84 38.95 853.33 275.73 887.67 255.74 443.84 0" fill="#ff594b" fill-rule="evenodd"/><polyline points="887.67 255.74 853.33 275.73 853.33 748.27 443.84 985.05 443.84 1024 887.67 768.26" fill="#e70013" fill-rule="evenodd"/><polyline points="443.84 985.05 34.34 748.27 34.34 275.73 0 255.74 0 768.26 443.84 1024" fill="#b4001d" fill-rule="evenodd"/><g clip-path="url(#clippath)"><rect x="34.34" y="511.49" width="819" height="473.56" fill="url(#Unbenannter_Verlauf_11)"/></g><g clip-path="url(#clippath-1)"><rect x="34.34" y="38.95" width="410.01" height="709.32" fill="url(#Unbenannter_Verlauf_10)"/></g><g clip-path="url(#clippath-2)"><rect x="443.32" y="38.95" width="410.01" height="709.32" fill="url(#Unbenannter_Verlauf_9)"/></g><polygon points="442.81 384.9 442.81 704.19 382.33 668.83 260.36 636.03 155.29 636.03 224.99 321.35 302.38 321.35 399.25 346.97 442.81 384.9" fill="#eee" fill-rule="evenodd"/><polygon points="442.81 384.9 442.81 704.19 503.8 668.83 625.27 636.03 730.84 636.03 660.63 321.35 583.75 321.35 486.89 346.97 442.81 384.9" fill="#c1c1c1" fill-rule="evenodd"/><polygon points="583.75 321.35 625.27 636.03 730.84 636.03 662.17 322.37 583.75 321.35" fill="#d8d8d8" fill-rule="evenodd"/><polygon points="302.38 321.35 260.36 636.03 155.29 636.03 223.97 322.37 302.38 321.35" fill="#fff" fill-rule="evenodd"/><polygon points="503.8 668.83 486.89 346.97 442.81 384.9 442.81 704.19 503.8 668.83" fill="#b5b5b5" fill-rule="evenodd"/><polygon points="382.33 668.83 399.25 346.97 442.81 384.9 442.81 704.19 382.33 668.83" fill="#d8d8d8" fill-rule="evenodd"/><polygon points="155.29 636.03 167.08 669.85 259.84 669.85 381.31 703.68 442.3 740.07 442.3 704.19 381.31 667.8 259.84 636.03 155.29 636.03" fill="#4d4d4d" fill-rule="evenodd"/><polygon points="729.31 636.03 719.06 669.85 624.75 669.85 503.29 703.17 442.3 741.09 442.3 703.68 503.29 667.29 624.75 636.03 729.31 636.03" fill="gray" fill-rule="evenodd"/></svg>