<svg xmlns="http://www.w3.org/2000/svg" viewBox="0 0 886.72 1023.89"><defs><radialGradient id="Unbenannter_Verlauf" cx="-196.59" cy="1024" fx="-196.59" fy="1024" r="1" gradientTransform="translate(-362485.39 70186.57) rotate(90) scale(354.42 -354.42)" gradientUnits="userSpaceOnUse"><stop offset="0" stop-color="#debbda"/><stop offset="1" stop-color="#c577bd"/></radialGradient><radialGradient id="Unbenannter_Verlauf_2" cx="-196.59" cy="1024" fx="-196.59" fy="1024" r="1" gradientTransform="translate(121567.71 -348631.13) rotate(-150) scale(354.42 -354.42)" gradientUnits="userSpaceOnUse"><stop offset="0" stop-color="#d89dbc"/><stop offset="1" stop-color="#92307c"/></radialGradient><radialGradient id="Unbenannter_Verlauf_3" cx="-196.59" cy="1024" fx="-196.59" fy="1024" r="1" gradientTransform="translate(242247.79 279980.39) rotate(-30) scale(354.42 -354.42)" gradientUnits="userSpaceOnUse"><stop offset="0" stop-color="#c2719a"/><stop offset="1" stop-color="#5d1462"/></radialGradient></defs><path d="M443.36,0L0,255.97l34.11,19.69L443.36,39.38l409.25,236.28,34.11-19.69L443.36,0Z" fill="#c577bd" fill-rule="evenodd"/><path d="M886.71,255.97l-34.11,19.69v472.56s-409.25,236.28-409.25,236.28v39.38s443.36-255.97,443.36-255.97" fill="#92307c" fill-rule="evenodd"/><path d="M443.36,984.51L34.11,748.23V275.67S0,255.97,0,255.97v511.95s443.36,255.97,443.36,255.97" fill="#5d1462" fill-rule="evenodd"/><path d="M34.12,748.23l409.25-236.28,409.25,236.28-409.25,236.28L34.12,748.23Z" fill="url(#Unbenannter_Verlauf)" fill-rule="evenodd"/><path d="M443.37,511.94L34.12,748.23V275.66L443.37,39.38" fill="url(#Unbenannter_Verlauf_2)" fill-rule="evenodd"/><path d="M443.37,39.38l409.25,236.28v472.56l-409.25-236.28V39.38Z" fill="url(#Unbenannter_Verlauf_3)" fill-rule="evenodd"/><path d="M548.26,693.72l-52.58-30.36v60.91s52.58-30.56,52.58-30.56Z" fill="#afeaff" fill-rule="evenodd"/><path d="M495.66,602.44l-.16,60.83-52.75-30.47,52.92-30.36Z" fill="#1aa9ea" fill-rule="evenodd"/><path d="M442.73,206.38l-158.25,91.4v60.9l-52.75,30.45,52.75,30.45,263.76-152.26-105.51-60.94Z" fill="#afeaff" fill-rule="evenodd"/><path d="M548.26,267.34l-263.78,152.26v60.9l52.75-30.45,52.76,30.49,158.27-91.4v-121.81Z" fill="#1aa9ea" fill-rule="evenodd"/><path d="M706.52,663.25l.02-304.56-105.53,60.9v304.58s105.51-60.92,105.51-60.92Z" fill="#1aa9ea" fill-rule="evenodd"/><path d="M706.52,358.69l-52.78-30.47-105.5,60.92,52.75,30.45,105.53-60.9Z" fill="#afeaff" fill-rule="evenodd"/><path d="M601.02,724.18V419.6s-52.76-30.45-52.76-30.45l-.02,304.56,52.78,30.47Z" fill="#25578e" fill-rule="evenodd"/><path d="M284.49,541.41l52.74-30.45,158.43,91.43-52.92,30.41,52.75,30.45-52.75,30.45-263.79-152.3,52.79-30.45,52.75,30.45Z" fill="#afeaff" fill-rule="evenodd"/><path d="M495.66,724.29l52.59-30.57v60.9l-105.51,60.94v-121.85l52.75-30.45,.17,61.02Z" fill="#1aa9ea" fill-rule="evenodd"/><path d="M178.95,541.42l263.79,152.3v121.85l-263.79-152.3v-121.85Z" fill="#25578e" fill-rule="evenodd"/><path d="M284.47,297.76l-52.75-30.45-52.77,30.45,52.76,30.46,52.75-30.46Z" fill="#afeaff" fill-rule="evenodd"/><path d="M284.47,297.76v60.92l-52.76,30.45v-61.19l52.76-30.19Z" fill="#1aa9ea" fill-rule="evenodd"/><path d="M469.12,434.99v60.75l52.61,30.38v-60.75l-52.61-30.38Z" fill="#25578e" fill-rule="evenodd"/><path d="M574.63,434.83l-52.76-30.46-52.75,30.46,52.61,30.54,52.9-30.54Z" fill="#afeaff" fill-rule="evenodd"/><path d="M574.63,434.82v61.09l-52.9,30.21v-60.75l52.9-30.55Z" fill="#1aa9ea" fill-rule="evenodd"/><path d="M178.97,480.51l158.27,91.37v-60.92l-52.75-30.46v-60.92l-52.75-30.46v-60.92l-52.76-30.46v182.75Z" fill="#25578e" fill-rule="evenodd"/><path d="M389.99,480.51l-52.76-30.46-52.75,30.46,52.76,30.46,52.75-30.46Z" fill="#afeaff" fill-rule="evenodd"/><path d="M389.98,480.53v60.9l-52.75,30.45v-60.9l52.75-30.45Z" fill="#1aa9ea" fill-rule="evenodd"/></svg>