<svg xmlns="http://www.w3.org/2000/svg" viewBox="0 0 886.82 1024"><defs><radialGradient id="Unbenannter_Verlauf_11" cx="-195.88" cy="1024.05" fx="-195.88" fy="1024.05" r="1.25" gradientTransform="translate(-290914.56 56241.91) rotate(90) scale(284.51 -284.51)" gradientUnits="userSpaceOnUse"><stop offset="0" stop-color="#ccc"/><stop offset="1" stop-color="#6b6b6b"/></radialGradient><radialGradient id="Unbenannter_Verlauf_2" cx="-195.99" cy="1024.12" fx="-195.99" fy="1024.12" r="1.25" gradientTransform="translate(97841.48 -279707.79) rotate(-150) scale(284.51 -284.51)" gradientUnits="userSpaceOnUse"><stop offset="0" stop-color="#a5a5a5"/><stop offset="1" stop-color="#333"/></radialGradient><radialGradient id="Unbenannter_Verlauf_3" cx="-195.99" cy="1023.99" fx="-195.99" fy="1023.99" r="1.25" gradientTransform="translate(194405.22 224938.93) rotate(-30) scale(284.51 -284.51)" gradientUnits="userSpaceOnUse"><stop offset="0" stop-color="#737373"/><stop offset="1" stop-color="#1a1a1a"/></radialGradient></defs><g><path d="M443.4,0L0,256l34.11,19.69L443.4,39.38l409.3,236.31,34.11-19.69L443.4,0Z" fill="#6b6b6b" fill-rule="evenodd"/><path d="M886.82,256l-34.11,19.69v472.61s-409.3,236.31-409.3,236.31v39.39s443.41-256,443.41-256" fill="#333" fill-rule="evenodd"/><path d="M443.41,984.61L34.12,748.31V275.7S0,256,0,256V768s443.41,256,443.41,256" fill="#1a1a1a" fill-rule="evenodd"/><path d="M34.12,748.3l409.29-236.31,409.3,236.31-409.3,236.31L34.12,748.3Z" fill="url(#Unbenannter_Verlauf_11)" fill-rule="evenodd"/><path d="M443.41,512L34.12,748.3V275.69L443.41,39.38" fill="url(#Unbenannter_Verlauf_2)" fill-rule="evenodd"/><path d="M443.41,39.38l409.3,236.31v472.61l-409.3-236.31V39.38Z" fill="url(#Unbenannter_Verlauf_3)" fill-rule="evenodd"/></g><g><path d="M580.14,346.32l34.1,98.46-136.44,54.15,.03-82.01,102.35-31.19-.05-39.41Z" fill="#f2f2f2" fill-rule="evenodd"/><path d="M708.85,601.2l42.47-62.23-21.5,90.65-47.33,51.45,26.36-79.87Z" fill="#dadada" fill-rule="evenodd"/><path d="M682.47,681.09h-68.18l-67.63-28.92-6.09-85.54,74.28,54.48,93.97-19.89-26.34,79.87Z" fill="silver" fill-rule="evenodd"/><path d="M682.47,523.47l26.58,77.88-94.22,19.74-74.28-54.41-.62-34.94,74.89,7.9,67.63-16.17Z" fill="#dadada" fill-rule="evenodd"/><path d="M307.27,410.76l-38.15-12.48-3.32-19.11v.07l41.48-15.69,34.15,2.46v.06l35.32,34.42-35.32,43.67-34.15,20.31v-53.71Z" fill="#fff" fill-rule="evenodd"/><path d="M376.75,400.49l32.86,71.94-45.97,19.65-4.31,1.72,.06-.23-52.12,10.29v-39.38l34.15-20.31,35.32-43.67Z" fill="#f2f2f2" fill-rule="evenodd"/><path d="M409.61,472.43l-32.86-71.94-22.95-22.38,55.81,27.91,68.25,10.82v82.1l-33.54-24.53-34.09-2.23-.62,.25Z" fill="#cdcdcd" fill-rule="evenodd"/><path d="M227.67,447.85l17.34-31.75,62.26,48.38,.02,39.37-79.62-56.01Z" fill="silver" fill-rule="evenodd"/><path d="M239.08,681.09l-33.54-78.42,90.22-12.22h0s.25-.04,.25-.04l45.97-27.13-.55,99.35-102.34,18.46Z" fill="#cdcdcd" fill-rule="evenodd"/><path d="M477.83,681.1h-68.21s-68.22-18.46-68.22-18.46l.62-99.36,61.44,46.85,.44,.16,.36,.26,74.18,31.5-.62,39.05Z" fill="silver" fill-rule="evenodd"/><path d="M614.84,539.73l-74.89-8.04-68.68,41.53-40.68-10.64-41.91-22.38-46.71,23.06h0s-51.32-34.04-51.32-34.04l-78.28-5.58v-.09l-40.18-28.41-.68-.57,.68-2.49,9.11-31.3,46.4-12.93,79.57,56.01,52.06-10.06,50.89-21.62,34.09,2.23,33.54,24.53,136.43-54.15,95.32,15.67-27.14,63.1-67.63,16.18Z" fill="#fff" fill-rule="evenodd"/><path d="M546.66,652.16l-34.74,28.94h-34.11s.61-39.06,.61-39.06l62.13-75.41,6.1,85.52Z" fill="#dadada" fill-rule="evenodd"/><path d="M708.81,601.22l-26.34-77.67,27.14-63.1h0l26.09,47.07,15.57,31.42-42.46,62.28Z" fill="#f2f2f2" fill-rule="evenodd"/><path d="M477.85,416.84l6.77-50.82-75.02-21.72-9.97-42.14,77.91-15.07,102.58,59.24v39.38l-102.28,31.13Z" fill="#fff" fill-rule="evenodd"/><path d="M341.98,563.27l-45.97,27.14-90.46,12.25,6.83-79.03,78.28,5.58,51.32,34.06Z" fill="#f2f2f2" fill-rule="evenodd"/><path d="M478.41,642.05l-7.08-68.8,68.62-41.56,.62,34.94-62.15,75.42Z" fill="#f2f2f2" fill-rule="evenodd"/><path d="M409.61,406.02l-55.88-27.98-1.66-1.59-10.52-10.31-.12-.12,34.09-59.1,24.31-4.69,9.78,42.05,75.02,21.72v.06l-6.77,50.76-68.25-10.82Z" fill="#f2f2f2" fill-rule="evenodd"/><path d="M307.27,464.47l-62.22-48.38,20.74-36.93,3.32,19.11,38.15,12.48v53.71Z" fill="#cdcdcd" fill-rule="evenodd"/><path d="M341.98,563.28l46.71-23.08,41.91,22.38,40.68,10.64,7.14,68.8-74.52-31.74-61.91-47Z" fill="#cdcdcd" fill-rule="evenodd"/><path d="M135.51,535.14l45.85-74.36-9.91,33.75,.06,.04-.06,.06,40.92,28.92-6.83,79.11,22.77,53.26,10.71,25.14-86.28-69.51-17.23-76.41Z" fill="silver" fill-rule="evenodd"/></g></svg>