<?xml version="1.0" encoding="utf-8"?>
<svg version="1.1" id="Ebene_1" xmlns:serif="http://www.serif.com/"
	 xmlns="http://www.w3.org/2000/svg" xmlns:xlink="http://www.w3.org/1999/xlink" x="0px" y="0px" viewBox="0 0 900 200"
	 style="enable-background:new 0 0 900 200;" xml:space="preserve">
<style type="text/css">
	.st0{fill-rule:evenodd;clip-rule:evenodd;fill:#CD95EF;}
	.st1{fill-rule:evenodd;clip-rule:evenodd;fill:#9D4699;}
	.st2{fill-rule:evenodd;clip-rule:evenodd;fill:#671F7F;}
	.st3{clip-path:url(#SVGID_2_);fill:url(#SVGID_3_);}
	.st4{clip-path:url(#SVGID_5_);fill:url(#SVGID_6_);}
	.st5{clip-path:url(#SVGID_8_);fill:url(#SVGID_9_);}
	.st6{fill-rule:evenodd;clip-rule:evenodd;fill:#962200;}
	.st7{fill-rule:evenodd;clip-rule:evenodd;fill:#801E00;}
	.st8{fill-rule:evenodd;clip-rule:evenodd;fill:#790A14;}
	.st9{fill-rule:evenodd;clip-rule:evenodd;fill:#FF932A;}
	.st10{fill-rule:evenodd;clip-rule:evenodd;fill:#D95623;}
	.st11{fill-rule:evenodd;clip-rule:evenodd;fill:#A40016;}
	.st12{fill-rule:evenodd;clip-rule:evenodd;fill:#FFCF8E;}
	.st13{fill-rule:evenodd;clip-rule:evenodd;fill:#FF7F4D;}
	.st14{fill-rule:evenodd;clip-rule:evenodd;fill:#F12431;}
</style>
<g>
	<polygon class="st0" points="450,0.1 363.4,50 370.1,53.9 450,7.7 529.9,53.9 536.6,50 	"/>
	<polyline class="st1" points="536.6,50 529.9,53.9 529.9,146.1 450,192.3 450,199.9 536.6,150 	"/>
	<polyline class="st2" points="450,192.3 370.1,146.1 370.1,53.9 363.4,50 363.4,150 450,199.9 	"/>
	<g>
		<defs>
			<polygon id="SVGID_1_" points="370.1,146.1 450,99.9 529.9,146.1 450,192.3 			"/>
		</defs>
		<clipPath id="SVGID_2_">
			<use xlink:href="#SVGID_1_"  style="overflow:visible;"/>
		</clipPath>
		
			<radialGradient id="SVGID_3_" cx="-0.8345" cy="201.2313" r="0.1202" gradientTransform="matrix(757.109 0 0 757.109 1081.8 -152252.9688)" gradientUnits="userSpaceOnUse">
			<stop  offset="0" style="stop-color:#FFCF8E"/>
			<stop  offset="0.5688" style="stop-color:#DCA7D3"/>
			<stop  offset="1" style="stop-color:#CC95F1"/>
		</radialGradient>
		<rect x="370.1" y="99.9" class="st3" width="159.8" height="92.4"/>
	</g>
	<g>
		<defs>
			<polyline id="SVGID_4_" points="450.1,100 370.1,146.1 370.1,53.9 450,7.7 			"/>
		</defs>
		<clipPath id="SVGID_5_">
			<use xlink:href="#SVGID_4_"  style="overflow:visible;"/>
		</clipPath>
		
			<radialGradient id="SVGID_6_" cx="-0.8273" cy="201.2328" r="0.1201" gradientTransform="matrix(762.492 0 0 762.492 1080.8 -153338.4062)" gradientUnits="userSpaceOnUse">
			<stop  offset="0" style="stop-color:#FFCF8E"/>
			<stop  offset="0.5688" style="stop-color:#BA6D98"/>
			<stop  offset="1" style="stop-color:#9B429D"/>
		</radialGradient>
		<rect x="370.1" y="7.7" class="st4" width="80" height="138.4"/>
	</g>
	<g>
		<defs>
			<polygon id="SVGID_7_" points="450,7.7 529.9,53.9 529.9,146.1 449.9,100 			"/>
		</defs>
		<clipPath id="SVGID_8_">
			<use xlink:href="#SVGID_7_"  style="overflow:visible;"/>
		</clipPath>
		
			<radialGradient id="SVGID_9_" cx="-0.8243" cy="201.2283" r="0.1201" gradientTransform="matrix(765.261 0 0 765.261 1080.8 -153892.2031)" gradientUnits="userSpaceOnUse">
			<stop  offset="0" style="stop-color:#FFCF8E"/>
			<stop  offset="0.5688" style="stop-color:#955484"/>
			<stop  offset="1" style="stop-color:#661D80"/>
		</radialGradient>
		<rect x="449.9" y="7.7" class="st5" width="80" height="138.4"/>
	</g>
	<polygon class="st6" points="439.8,106.3 494.7,137.9 494.7,74.5 439.8,42.9 	"/>
	<polygon class="st7" points="417.4,118.2 472.3,149.8 472.3,87.4 417.4,55.8 	"/>
	<polygon class="st8" points="396.1,130.8 450.9,162.4 450.9,99.9 396.1,68.3 	"/>
	<polygon class="st9" points="494.6,74.7 494.6,137.9 504.9,131.9 504.9,68.7 	"/>
	<polygon class="st10" points="472.2,87.4 472.2,149.7 482.6,143.8 482.6,81.4 	"/>
	<polygon class="st11" points="450.9,100.1 450.9,162.3 461.2,156.4 461.2,94.1 	"/>
	<polygon class="st12" points="439.6,43 494.6,74.7 504.9,68.7 449.9,37.1 	"/>
	<polygon class="st13" points="417.2,55.8 472.2,87.5 482.6,81.5 427.6,49.9 	"/>
	<polygon class="st14" points="395.9,68.4 450.9,100.1 461.2,94.1 406.2,62.5 	"/>
</g>
</svg>
