<svg xmlns="http://www.w3.org/2000/svg" width="100%" height="100%" viewBox="0 0 1442 1664"><g transform="matrix(3.43558,0,0,4.36447,-765.061,-1284.28)"><g transform="matrix(0.291072,0,0,0.229123,-729.15,15.6452)"><path d="M3990.64,1216L3270.11,1632L3325.54,1664L3990.64,1280L4655.75,1664L4711.18,1632L3990.64,1216Z" style="fill:rgb(245,87,83);"/></g><g transform="matrix(-0.145536,0.198426,-0.252076,-0.114562,1529.45,-72.3381)"><path d="M3270.11,1632L3325.54,1664L3990.64,1280L4655.75,1664L4711.18,1632L3990.64,1216" style="fill:rgb(197,32,27);"/></g><g transform="matrix(-0.145536,-0.198426,0.252076,-0.114562,496.946,1511.36)"><path d="M3325.54,1664L3990.64,1280L4655.75,1664L4711.18,1632L3990.64,1216L3270.11,1632" style="fill:rgb(117,16,16);"/></g><g transform="matrix(0.291072,0,0,0.229123,-1981.71,96.2965)"><path d="M7628.8,2080L8293.9,1696L8959.01,2080L8293.9,2464L7628.8,2080Z" style="fill:url(#_Radial1);"/></g><g transform="matrix(0.291072,0,0,0.229123,-1981.71,96.2965)"><path d="M8293.9,1696L7628.8,2080L7628.8,1312L8293.9,928" style="fill:url(#_Radial2);"/></g><g transform="matrix(0.291072,0,0,0.229123,-1981.71,96.2965)"><path d="M8293.9,928L8959.01,1312L8959.01,2080L8293.9,1696L8293.9,928Z" style="fill:url(#_Radial3);"/></g></g><g transform="matrix(3.1782,0,0,4.0375,236.383,-308.364)"><g transform="matrix(0.320136,0,0,0.252001,-2790.03,-1971.93)"><path d="M9352.63,9184.97L9463.89,9249.21L9129.74,9442.13L9018.47,9377.9L9352.63,9184.97Z" style="fill:rgb(118,118,118);"/></g><g transform="matrix(0.320136,0,0,0.252001,-2790.03,-1971.93)"><path d="M9463.89,9249.21L9352.54,9184.92L9352.54,8803.09L9463.89,8867.39L9463.89,9249.21Z" style="fill:rgb(182,182,182);"/></g><g transform="matrix(0.320136,0,0,0.252001,-2790.03,-1971.93)"><path d="M9241.18,9122.02L9241.18,8867.39L9352.54,8803.09L9352.54,9185.02L9018.47,9377.9L9018.47,9250.6L9241.18,9122.02Z" style="fill:white;"/></g></g><g transform="matrix(3.1782,0,0,4.0375,199.379,-308.364)"><g transform="matrix(-0.319067,0.145007,-0.611103,-0.27773,8953.59,1928.88)"><rect x="8190.2" y="10133.2" width="111.819" height="58.287" style="fill:rgb(118,118,118);"/></g><g transform="matrix(0.320136,0,5.87622e-33,0.252001,-2584.94,-2320.97)"><path d="M8647.96,9961.99L8425.16,10090.6L8536.43,10154.9L8759.23,10026.2L8647.96,9961.99Z" style="fill:rgb(118,118,118);"/></g><g transform="matrix(0.320136,0,5.87622e-33,0.252001,-2584.94,-2320.97)"><path d="M8425.16,10090.6L8425.16,10345.1L8536.52,10409.4L8536.52,10154.9L8425.16,10090.6Z" style="fill:rgb(182,182,182);"/></g><g transform="matrix(-0.447353,-0.203309,1.02028e-16,-0.496189,3857.65,6934.98)"><rect x="8133.29" y="10229.5" width="79.688" height="64.595" style="fill:rgb(182,182,182);"/></g><g transform="matrix(0.320136,0,5.87622e-33,0.252001,-2584.94,-2320.97)"><path d="M8647.87,9834.75L8313.81,10027.6L8313.81,10409.5L8425.16,10345.2L8425.16,10090.6C8425.16,10090.6 8647.87,9962.04 8647.87,9962.04L8647.87,9834.75Z" style="fill:white;"/></g></g><defs><radialGradient id="_Radial1" cx="0" cy="0" r="1" gradientUnits="userSpaceOnUse" gradientTransform="matrix(8.18545e-12,576,-576,8.18545e-12,8293.9,1696)"><stop offset="0" style="stop-color:rgb(252,56,50);stop-opacity:1"/><stop offset="1" style="stop-color:rgb(245,87,83);stop-opacity:1"/></radialGradient><radialGradient id="_Radial2" cx="0" cy="0" r="1" gradientUnits="userSpaceOnUse" gradientTransform="matrix(-498.831,-288,288,-498.831,8293.9,1696)"><stop offset="0" style="stop-color:rgb(232,38,33);stop-opacity:1"/><stop offset="1" style="stop-color:rgb(197,32,27);stop-opacity:1"/></radialGradient><radialGradient id="_Radial3" cx="0" cy="0" r="1" gradientUnits="userSpaceOnUse" gradientTransform="matrix(498.831,-288,288,498.831,8293.9,1696)"><stop offset="0" style="stop-color:rgb(194,29,29);stop-opacity:1"/><stop offset="1" style="stop-color:rgb(117,16,16);stop-opacity:1"/></radialGradient></defs></svg>