<?xml version="1.0" encoding="utf-8"?>
<svg version="1.1" id="Ebene_1" xmlns:serif="http://www.serif.com/"
	 xmlns="http://www.w3.org/2000/svg" xmlns:xlink="http://www.w3.org/1999/xlink" x="0px" y="0px" viewBox="0 0 900 200"
	 style="enable-background:new 0 0 900 200;" xml:space="preserve">
<style type="text/css">
	.st0{fill-rule:evenodd;clip-rule:evenodd;fill:#FF594B;}
	.st1{fill-rule:evenodd;clip-rule:evenodd;fill:#E70013;}
	.st2{fill-rule:evenodd;clip-rule:evenodd;fill:#B4001D;}
	.st3{clip-path:url(#SVGID_2_);fill:url(#SVGID_3_);}
	.st4{clip-path:url(#SVGID_5_);fill:url(#SVGID_6_);}
	.st5{clip-path:url(#SVGID_8_);fill:url(#SVGID_9_);}
	.st6{fill-rule:evenodd;clip-rule:evenodd;fill:#EEEEEE;}
	.st7{fill-rule:evenodd;clip-rule:evenodd;fill:#C1C1C1;}
	.st8{fill-rule:evenodd;clip-rule:evenodd;fill:#D8D8D8;}
	.st9{fill-rule:evenodd;clip-rule:evenodd;fill:#FFFFFF;}
	.st10{fill-rule:evenodd;clip-rule:evenodd;fill:#B5B5B5;}
	.st11{fill-rule:evenodd;clip-rule:evenodd;fill:#4D4D4D;}
	.st12{fill-rule:evenodd;clip-rule:evenodd;fill:#808080;}
</style>
<g>
	<polygon class="st0" points="450,0.1 363.4,50 370.1,53.9 450,7.7 529.9,53.9 536.6,50 	"/>
	<polyline class="st1" points="536.6,50 529.9,53.9 529.9,146.1 450,192.3 450,199.9 536.6,150 	"/>
	<polyline class="st2" points="450,192.3 370.1,146.1 370.1,53.9 363.4,50 363.4,150 450,199.9 	"/>
	<g>
		<defs>
			<polygon id="SVGID_1_" points="370.1,146.1 450,99.9 529.9,146.1 450,192.3 			"/>
		</defs>
		<clipPath id="SVGID_2_">
			<use xlink:href="#SVGID_1_"  style="overflow:visible;"/>
		</clipPath>
		
			<radialGradient id="SVGID_3_" cx="-0.475" cy="200.7008" r="0.1202" gradientTransform="matrix(1330.22 0 0 1330.22 1081.8 -266875.1562)" gradientUnits="userSpaceOnUse">
			<stop  offset="0" style="stop-color:#FF8E68"/>
			<stop  offset="0.4312" style="stop-color:#FF6F4F"/>
			<stop  offset="1" style="stop-color:#FF2A18"/>
		</radialGradient>
		<rect x="370.1" y="99.9" class="st3" width="159.8" height="92.4"/>
	</g>
	<g>
		<defs>
			<polyline id="SVGID_4_" points="450.1,100 370.1,146.1 370.1,53.9 450,7.7 			"/>
		</defs>
		<clipPath id="SVGID_5_">
			<use xlink:href="#SVGID_4_"  style="overflow:visible;"/>
		</clipPath>
		
			<radialGradient id="SVGID_6_" cx="-1.0951" cy="201.6319" r="0.1201" gradientTransform="matrix(576 0 0 576 1080.8 -116040)" gradientUnits="userSpaceOnUse">
			<stop  offset="0" style="stop-color:#FFB39B"/>
			<stop  offset="0.4823" style="stop-color:#F88476"/>
			<stop  offset="1" style="stop-color:#E40012"/>
		</radialGradient>
		<rect x="370.1" y="7.7" class="st4" width="80" height="138.4"/>
	</g>
	<g>
		<defs>
			<polygon id="SVGID_7_" points="450,7.7 529.9,53.9 529.9,146.1 449.9,100 			"/>
		</defs>
		<clipPath id="SVGID_8_">
			<use xlink:href="#SVGID_7_"  style="overflow:visible;"/>
		</clipPath>
		
			<radialGradient id="SVGID_9_" cx="-1.0951" cy="201.6319" r="0.1201" gradientTransform="matrix(576 0 0 576 1080.8 -116040)" gradientUnits="userSpaceOnUse">
			<stop  offset="0" style="stop-color:#FF6632"/>
			<stop  offset="0.48" style="stop-color:#E44B2B"/>
			<stop  offset="1" style="stop-color:#990018"/>
		</radialGradient>
		<rect x="449.9" y="7.7" class="st5" width="80" height="138.4"/>
	</g>
	<polygon class="st6" points="449.8,75.2 449.8,137.5 438,130.6 414.2,124.2 393.7,124.2 407.3,62.8 422.4,62.8 441.3,67.8 	"/>
	<polygon class="st7" points="449.8,75.2 449.8,137.5 461.7,130.6 485.4,124.2 506,124.2 492.3,62.8 477.3,62.8 458.4,67.8 	"/>
	<polygon class="st8" points="477.3,62.8 485.4,124.2 506,124.2 492.6,63 	"/>
	<polygon class="st9" points="422.4,62.8 414.2,124.2 393.7,124.2 407.1,63 	"/>
	<polygon class="st10" points="461.7,130.6 458.4,67.8 449.8,75.2 449.8,137.5 	"/>
	<polygon class="st8" points="438,130.6 441.3,67.8 449.8,75.2 449.8,137.5 	"/>
	<polygon class="st11" points="393.7,124.2 396,130.8 414.1,130.8 437.8,137.4 449.7,144.5 449.7,137.5 437.8,130.4 414.1,124.2 	
		"/>
	<polygon class="st12" points="505.7,124.2 503.7,130.8 485.3,130.8 461.6,137.3 449.7,144.7 449.7,137.4 461.6,130.3 485.3,124.2 	
		"/>
</g>
</svg>
