<svg xmlns="http://www.w3.org/2000/svg" width="100%" height="100%" viewBox="0 0 1024 1024"><g transform="matrix(0.615116,0,0,0.615116,-1942.71,-747.757)"><path d="M3990.64,1216L3270.11,1632L3325.54,1664L3990.64,1280L4655.75,1664L4711.18,1632L3990.64,1216Z" style="fill:rgb(245,173,231);"/></g><g transform="matrix(-0.307558,0.532706,-0.532706,-0.307558,2830.34,-983.962)"><path d="M3270.11,1632L3325.54,1664L3990.64,1280L4655.75,1664L4711.18,1632L3990.64,1216" style="fill:rgb(193,100,162);"/></g><g transform="matrix(-0.307558,-0.532706,0.532706,-0.307558,648.373,3267.72)"><path d="M3325.54,1664L3990.64,1280L4655.75,1664L4711.18,1632L3990.64,1216L3270.11,1632" style="fill:rgb(128,60,86);"/></g><g transform="matrix(0.615116,0,0,0.615116,-4589.71,-531.236)"><path d="M7628.8,2080L8293.9,1696L8959.01,2080L8293.9,2464L7628.8,2080Z" style="fill:url(#_Radial1);"/></g><g transform="matrix(0.615116,0,0,0.615116,-4589.71,-531.236)"><path d="M8293.9,1696L7628.8,2080L7628.8,1312L8293.9,928" style="fill:url(#_Radial2);"/></g><g transform="matrix(0.615116,0,0,0.615116,-4589.71,-531.236)"><path d="M8293.9,928L8959.01,1312L8959.01,2080L8293.9,1696L8293.9,928Z" style="fill:url(#_Radial3);"/></g><g transform="matrix(2.61873,0,0,-2.6187,571.364,354.978)"><path d="M0,0L-22.669,-39.264L-45.338,0L-120.829,0L-22.669,-170.02L75.491,0L0,0Z" style="fill:rgb(65,184,131);fill-rule:nonzero;"/></g><g transform="matrix(2.61873,0,0,-2.6187,571.364,354.978)"><path d="M0,0L-22.669,-39.264L-45.338,0L-81.565,0L-22.669,-102.01L36.227,0L0,0Z" style="fill:rgb(52,73,94);fill-rule:nonzero;"/></g><defs><radialGradient id="_Radial1" cx="0" cy="0" r="1" gradientUnits="userSpaceOnUse" gradientTransform="matrix(8.18545e-12,576,-576,8.18545e-12,8293.9,1696)"><stop offset="0" style="stop-color:white;stop-opacity:1"/><stop offset="1" style="stop-color:rgb(245,173,231);stop-opacity:1"/></radialGradient><radialGradient id="_Radial2" cx="0" cy="0" r="1" gradientUnits="userSpaceOnUse" gradientTransform="matrix(-498.831,-288,288,-498.831,8293.9,1696)"><stop offset="0" style="stop-color:rgb(240,223,236);stop-opacity:1"/><stop offset="1" style="stop-color:rgb(193,100,162);stop-opacity:1"/></radialGradient><radialGradient id="_Radial3" cx="0" cy="0" r="1" gradientUnits="userSpaceOnUse" gradientTransform="matrix(498.831,-288,288,498.831,8293.9,1696)"><stop offset="0" style="stop-color:rgb(240,185,234);stop-opacity:1"/><stop offset="1" style="stop-color:rgb(128,60,86);stop-opacity:1"/></radialGradient></defs></svg>