<svg xmlns="http://www.w3.org/2000/svg" width="100%" height="100%" viewBox="0 0 1442 1664"><g transform="matrix(1.84785,0,0,1.53745,1624.05,1304.28)"><g><g><g transform="matrix(0.54117,0,0,0.650427,-2648.58,-1639.26)"><path d="M3990.64,1216L3270.11,1632L3325.54,1664L3990.64,1280L4655.75,1664L4711.18,1632L3990.64,1216Z" style="fill:rgb(141,166,229);"/></g><g transform="matrix(-0.270585,0.563286,-0.468667,-0.325214,1550.68,-1889.02)"><path d="M3270.11,1632L3325.54,1664L3990.64,1280L4655.75,1664L4711.18,1632L3990.64,1216" style="fill:rgb(87,95,156);"/></g><g transform="matrix(-0.270585,-0.563286,0.468667,-0.325214,-368.978,2606.73)"><path d="M3325.54,1664L3990.64,1280L4655.75,1664L4711.18,1632L3990.64,1216L3270.11,1632" style="fill:rgb(47,23,101);"/></g><g transform="matrix(0.54117,0,0,0.650427,-4977.37,-1410.31)"><path d="M7628.8,2080L8293.9,1696L8959.01,2080L8293.9,2464L7628.8,2080Z" style="fill:url(#_Radial1);"/></g><g transform="matrix(0.54117,0,0,0.650427,-4977.37,-1410.31)"><path d="M8293.9,1696L7628.8,2080L7628.8,1312L8293.9,928" style="fill:url(#_Radial2);"/></g><g transform="matrix(0.54117,0,0,0.650427,-4977.37,-1410.31)"><path d="M8293.9,928L8959.01,1312L8959.01,2080L8293.9,1696L8293.9,928Z" style="fill:url(#_Radial3);"/></g></g></g></g><g transform="matrix(3.4219,-1.98237,2.35141,1.35759,-1645.67,1589.01)"><rect x="443.405" y="192" width="115.448" height="168.15" style="fill:rgb(255,239,167);"/></g><g transform="matrix(3.4219,-1.98237,2.31765,1.3381,-1634.81,1413.91)"><rect x="443.405" y="192" width="115.448" height="168.15" style="fill:rgb(255,239,167);"/></g><g transform="matrix(3.4219,-1.98237,2.31765,1.3381,-1634.9,1231.39)"><rect x="443.405" y="192" width="115.448" height="168.474" style="fill:rgb(255,239,167);"/></g><g transform="matrix(2.05406,1.18591,-0.000762182,0.516663,-465.38,457.815)"><rect x="384" y="110.851" width="192" height="166.277" style="fill:rgb(154,100,18);"/></g><g transform="matrix(2.02724,1.17043,-0.000762182,0.516663,-450.55,285.416)"><rect x="384" y="110.851" width="192" height="166.277" style="fill:rgb(154,100,18);"/></g><g transform="matrix(2.02471,1.16896,-0.000762182,0.516663,-449.436,103.178)"><rect x="384" y="110.851" width="192" height="166.277" style="fill:rgb(154,100,18);"/></g><g transform="matrix(2.06171,-1.19439,-0.000762182,0.516663,-469.793,1571.16)"><rect x="576" y="609.682" width="192" height="166.277" style="fill:rgb(237,187,55);"/></g><g transform="matrix(2.06171,-1.19439,-0.000762182,0.516663,-470.026,1389.82)"><rect x="576" y="609.682" width="192" height="166.277" style="fill:rgb(237,187,55);"/></g><g transform="matrix(2.06171,-1.19439,-0.000762182,0.516663,-470.372,1206.74)"><rect x="576" y="609.682" width="192" height="166.277" style="fill:rgb(237,187,55);"/></g><defs><radialGradient id="_Radial1" cx="0" cy="0" r="1" gradientUnits="userSpaceOnUse" gradientTransform="matrix(8.18545e-12,576,-576,8.18545e-12,8293.9,1696)"><stop offset="0" style="stop-color:rgb(222,222,222);stop-opacity:1"/><stop offset="0" style="stop-color:rgb(212,213,213);stop-opacity:1"/><stop offset="1" style="stop-color:rgb(141,166,229);stop-opacity:1"/></radialGradient><radialGradient id="_Radial2" cx="0" cy="0" r="1" gradientUnits="userSpaceOnUse" gradientTransform="matrix(-498.831,-288,288,-498.831,8293.9,1696)"><stop offset="0" style="stop-color:rgb(191,191,191);stop-opacity:1"/><stop offset="1" style="stop-color:rgb(87,95,156);stop-opacity:1"/></radialGradient><radialGradient id="_Radial3" cx="0" cy="0" r="1" gradientUnits="userSpaceOnUse" gradientTransform="matrix(498.831,-288,288,498.831,8293.9,1696)"><stop offset="0" style="stop-color:rgb(159,159,159);stop-opacity:1"/><stop offset="1" style="stop-color:rgb(51,29,127);stop-opacity:1"/></radialGradient></defs></svg>