<svg xmlns="http://www.w3.org/2000/svg" viewBox="0 0 886.81 1024"><defs><clipPath id="clippath"><polygon points="34.11 748.31 443.4 511.38 852.7 748.31 443.4 984.62 34.11 748.31" clip-rule="evenodd" fill="none"/></clipPath><radialGradient id="Unbenannter_Verlauf_8" cx="-197.18" cy="1024.69" fx="-197.18" fy="1024.69" r=".62" gradientTransform="translate(149729.82 -775286.79) scale(757.11)" gradientUnits="userSpaceOnUse"><stop offset="0" stop-color="#ffcf8e"/><stop offset=".57" stop-color="#dca7d3"/><stop offset="1" stop-color="#cc95f1"/></radialGradient><clipPath id="clippath-1"><polyline points="444.02 512 34.11 748.31 34.11 275.69 443.4 39.38" clip-rule="evenodd" fill="none"/></clipPath><radialGradient id="Unbenannter_Verlauf_2" cx="-197.17" cy="1024.69" fx="-197.17" fy="1024.69" r=".62" gradientTransform="translate(150787.09 -780807.81) scale(762.49)" gradientUnits="userSpaceOnUse"><stop offset="0" stop-color="#ffcf8e"/><stop offset=".57" stop-color="#ba6d98"/><stop offset="1" stop-color="#9b429d"/></radialGradient><clipPath id="clippath-2"><polygon points="443.4 39.38 852.7 275.69 852.7 748.31 442.79 512 443.4 39.38" clip-rule="evenodd" fill="none"/></clipPath><radialGradient id="Unbenannter_Verlauf_3" cx="-197.17" cy="1024.69" fx="-197.17" fy="1024.69" r=".62" gradientTransform="translate(151331.46 -783643.25) scale(765.26)" gradientUnits="userSpaceOnUse"><stop offset="0" stop-color="#ffcf8e"/><stop offset=".57" stop-color="#955484"/><stop offset="1" stop-color="#661d80"/></radialGradient></defs><polygon points="443.4 0 0 256 34.11 275.69 443.4 39.38 852.7 275.69 886.81 256 443.4 0" fill="#cd95ef" fill-rule="evenodd"/><polyline points="886.81 256 852.7 275.69 852.7 748.31 443.4 984.62 443.4 1024 886.81 768" fill="#9d4699" fill-rule="evenodd"/><polyline points="443.4 984.62 34.11 748.31 34.11 275.69 0 256 0 768 443.4 1024" fill="#671f7f" fill-rule="evenodd"/><g clip-path="url(#clippath)"><rect x="34.11" y="511.38" width="818.6" height="473.23" fill="url(#Unbenannter_Verlauf_8)"/></g><g clip-path="url(#clippath-1)"><rect x="34.11" y="39.38" width="409.91" height="708.92" fill="url(#Unbenannter_Verlauf_2)"/></g><g clip-path="url(#clippath-2)"><rect x="442.79" y="39.38" width="409.91" height="708.92" fill="url(#Unbenannter_Verlauf_3)"/></g><polygon points="391.79 544.44 672.97 706.24 672.97 381.82 391.79 220.03 391.79 544.44" fill="#962200" fill-rule="evenodd"/><polygon points="279.67 605.58 560.86 767.37 560.86 447.62 279.67 285.83 279.67 605.58" fill="#801e00" fill-rule="evenodd"/><polygon points="167.89 670.19 449.08 831.98 449.08 511.61 167.89 349.82 167.89 670.19" fill="#790a14" fill-rule="evenodd"/><polygon points="672.78 382.6 672.78 706.18 725.69 675.73 725.69 352.15 672.78 382.6" fill="#ff932a" fill-rule="evenodd"/><polygon points="561.42 447.39 561.42 766.75 614.33 736.31 614.33 416.95 561.42 447.39" fill="#d95623" fill-rule="evenodd"/><polygon points="448.88 512.65 448.88 831.61 501.79 801.17 501.79 482.21 448.88 512.65" fill="#a40016" fill-rule="evenodd"/><polygon points="391.17 220.71 672.92 382.82 725.84 352.38 444.08 190.26 391.17 220.71" fill="#ffcf8e" fill-rule="evenodd"/><polygon points="279.67 285.27 561.42 447.39 614.33 416.95 332.58 254.83 279.67 285.27" fill="#ff7f4d" fill-rule="evenodd"/><polygon points="167.13 350.54 448.88 512.65 501.79 482.21 220.04 320.09 167.13 350.54" fill="#f12431" fill-rule="evenodd"/></svg>