<svg xmlns="http://www.w3.org/2000/svg" viewBox="0 0 886.8 1024"><defs><radialGradient id="Unbenannter_Verlauf_9" cx="-195.96" cy="1024.05" fx="-195.96" fy="1024.05" r="1" gradientTransform="translate(-361880.32 69843.8) rotate(90) scale(353.81 -353.81)" gradientUnits="userSpaceOnUse"><stop offset="0" stop-color="#c29df8"/><stop offset="1" stop-color="#c364b5"/></radialGradient><radialGradient id="Unbenannter_Verlauf_2" cx="-195.96" cy="1024.06" fx="-195.96" fy="1024.06" r="1" gradientTransform="translate(121562.26 -347937.32) rotate(-150) scale(353.81 -353.81)" gradientUnits="userSpaceOnUse"><stop offset="0" stop-color="#af83f8"/><stop offset="1" stop-color="#9e2c8f"/></radialGradient><radialGradient id="Unbenannter_Verlauf_3" cx="-195.96" cy="1024.05" fx="-195.96" fy="1024.05" r="1" gradientTransform="translate(241650.16 279626.88) rotate(-30) scale(353.81 -353.81)" gradientUnits="userSpaceOnUse"><stop offset="0" stop-color="#9756e6"/><stop offset="1" stop-color="#8b0361"/></radialGradient></defs><g><path d="M443.4,0L0,256l34.11,19.69L443.4,39.38l409.29,236.3,34.11-19.69L443.4,0Z" fill="#c364b5" fill-rule="evenodd"/><path d="M886.8,255.99l-34.11,19.69v472.61s-409.29,236.31-409.29,236.31v39.39s443.4-256,443.4-256" fill="#9e2c8f" fill-rule="evenodd"/><path d="M443.4,984.61L34.11,748.31V275.7S0,256.01,0,256.01v512s443.4,255.99,443.4,255.99" fill="#8b0361" fill-rule="evenodd"/><path d="M34.1,748.3l409.29-236.3,409.29,236.3-409.29,236.3L34.1,748.3Z" fill="url(#Unbenannter_Verlauf_9)" fill-rule="evenodd"/><path d="M443.39,511.99L34.1,748.3V275.69L443.39,39.38" fill="url(#Unbenannter_Verlauf_2)" fill-rule="evenodd"/><path d="M443.39,39.38l409.29,236.3v472.61l-409.29-236.3V39.38Z" fill="url(#Unbenannter_Verlauf_3)" fill-rule="evenodd"/></g><g><polygon points="557.12 761 488.54 800.59 420.07 761.06 488.65 721.47 557.12 761" fill="#b5582c" fill-rule="evenodd"/><polygon points="420.05 761.05 351.47 800.65 283 761.12 351.59 721.52 420.05 761.05" fill="#b5582c" fill-rule="evenodd"/><polygon points="625.64 643.09 557.06 682.69 488.59 643.16 557.17 603.56 625.64 643.09" fill="#b5582c" fill-rule="evenodd"/><polygon points="557.12 525.27 488.54 564.86 420.07 525.33 488.65 485.74 557.12 525.27" fill="#b5582c" fill-rule="evenodd"/><polygon points="420.05 525.35 351.47 564.94 283 525.41 351.59 485.82 420.05 525.35" fill="#b5582c" fill-rule="evenodd"/><path d="M488.59,250.01l-137.11,79.14,68.47,39.57,137.11-79.2-68.47-39.51Z" fill="#b5582c" fill-rule="evenodd"/><polygon points="557.05 760.95 488.53 721.38 488.53 643.12 557.05 682.68 557.05 760.95" fill="#ff942d" fill-rule="evenodd"/><polygon points="420.01 761.03 351.49 721.46 351.49 643.2 420.01 682.76 420.01 761.03" fill="#ff942d" fill-rule="evenodd"/><polygon points="625.6 643.07 557.07 603.5 557.07 525.24 625.6 564.8 625.6 643.07" fill="#ff942d" fill-rule="evenodd"/><polygon points="557.05 525.22 488.53 485.65 488.53 407.38 557.05 446.95 557.05 525.22" fill="#ff942d" fill-rule="evenodd"/><path d="M351.48,329.15v156.61l68.53,39.57v-156.61l-68.53-39.57Z" fill="#ff942d" fill-rule="evenodd"/><polygon points="557.05 289.51 488.53 249.95 488.53 171.68 557.05 211.24 557.05 289.51" fill="#ff942d" fill-rule="evenodd"/><polygon points="488.53 721.54 420.01 761.11 420.01 682.77 488.53 643.21 488.53 721.54" fill="#ffd9b8" fill-rule="evenodd"/><polygon points="351.49 721.6 282.97 761.16 282.97 682.83 351.49 643.26 351.49 721.6" fill="#ffd9b8" fill-rule="evenodd"/><polygon points="557.08 603.64 488.55 643.2 488.55 564.87 557.08 525.3 557.08 603.64" fill="#ffd9b8" fill-rule="evenodd"/><polygon points="488.53 485.81 420.01 525.37 420.01 447.04 488.53 407.48 488.53 485.81" fill="#ffd9b8" fill-rule="evenodd"/><path d="M488.53,171.71l-205.57,118.68v235.01l68.52-39.57v-156.68l137.05-79.11v-78.33Z" fill="#ffd9b8" fill-rule="evenodd"/></g></svg>