<?xml version="1.0" encoding="UTF-8" standalone="no"?>
<!DOCTYPE svg PUBLIC "-//W3C//DTD SVG 1.1//EN" "http://www.w3.org/Graphics/SVG/1.1/DTD/svg11.dtd">
<svg width="100%" height="100%" viewBox="0 0 1442 1664" version="1.1" xmlns="http://www.w3.org/2000/svg" xmlns:xlink="http://www.w3.org/1999/xlink" xml:space="preserve" xmlns:serif="http://www.serif.com/" style="fill-rule:evenodd;clip-rule:evenodd;stroke-linejoin:round;stroke-miterlimit:2;">
    <g transform="matrix(1.84785,0,0,1.53745,1624.05,1304.28)">
        <g>
            <g transform="matrix(0.54117,0,0,0.650427,-2648.58,-1639.26)">
                <path d="M3990.64,1216L3270.11,1632L3325.54,1664L3990.64,1280L4655.75,1664L4711.18,1632L3990.64,1216Z" style="fill:rgb(106,176,255);"/>
            </g>
            <g transform="matrix(-0.270585,0.563286,-0.468667,-0.325214,1550.68,-1889.02)">
                <path d="M3270.11,1632L3325.54,1664L3990.64,1280L4655.75,1664L4711.18,1632L3990.64,1216" style="fill:rgb(78,126,231);"/>
            </g>
            <g transform="matrix(-0.270585,-0.563286,0.468667,-0.325214,-368.978,2606.73)">
                <path d="M3325.54,1664L3990.64,1280L4655.75,1664L4711.18,1632L3990.64,1216L3270.11,1632" style="fill:rgb(51,84,184);"/>
            </g>
            <g transform="matrix(0.54117,0,0,0.650427,-4977.37,-1410.31)">
                <path d="M7628.8,2080L8293.9,1696L8959.01,2080L8293.9,2464L7628.8,2080Z" style="fill:url(#_Radial1);"/>
            </g>
            <g transform="matrix(0.54117,0,0,0.650427,-4977.37,-1410.31)">
                <path d="M8293.9,1696L7628.8,2080L7628.8,1312L8293.9,928" style="fill:url(#_Radial2);"/>
            </g>
            <g transform="matrix(0.54117,0,0,0.650427,-4977.37,-1410.31)">
                <path d="M8293.9,928L8959.01,1312L8959.01,2080L8293.9,1696L8293.9,928Z" style="fill:url(#_Radial3);"/>
            </g>
        </g>
    </g>
    <g transform="matrix(1.84785,0,0,1.53745,-1902.04,823.581)">
        <g transform="matrix(1.15818,-0.803674,1.75946,1.22091,-15900.4,-4262.94)">
            <rect x="4822.03" y="6601.66" width="103.593" height="68.191" style="fill:white;"/>
        </g>
        <g transform="matrix(0.57909,-0.401837,0.879732,0.610456,-7240.29,-1879.2)">
            <rect x="4822.03" y="6601.66" width="103.593" height="68.191" style="fill:white;"/>
        </g>
        <g transform="matrix(0.57909,-0.401837,0.879732,0.610456,-7240.29,-2378.72)">
            <rect x="4822.03" y="6601.66" width="103.593" height="68.191" style="fill:white;"/>
        </g>
        <g transform="matrix(0.57909,-0.401837,0.879732,0.610456,-7060.32,-2253.84)">
            <rect x="4822.03" y="6601.66" width="103.593" height="68.191" style="fill:white;"/>
        </g>
        <g transform="matrix(0.57909,-0.401837,0.879732,0.610456,-7060.32,-2004.08)">
            <rect x="4822.03" y="6601.66" width="103.593" height="68.191" style="fill:white;"/>
        </g>
        <g transform="matrix(0.57909,-0.401837,0.879732,0.610456,-7420.26,-2004.08)">
            <rect x="4822.03" y="6601.66" width="103.593" height="68.191" style="fill:white;"/>
        </g>
        <g transform="matrix(0.57909,-0.401837,0.879732,0.610456,-7420.26,-2253.84)">
            <rect x="4822.03" y="6601.66" width="103.593" height="68.191" style="fill:white;"/>
        </g>
        <g transform="matrix(2.16469,1.5021,-1.20164e-16,1.73447,-9018.4,-18744.1)">
            <rect x="4766.6" y="6633.66" width="55.426" height="96" style="fill:rgb(166,166,166);"/>
        </g>
        <g transform="matrix(1.08234,0.75105,-6.00821e-17,0.867237,-3799.31,-9119.76)">
            <rect x="4766.6" y="6633.66" width="55.426" height="96" style="fill:rgb(166,166,166);"/>
        </g>
        <g transform="matrix(1.08234,0.75105,-6.00821e-17,0.867237,-3799.31,-9619.28)">
            <rect x="4766.6" y="6633.66" width="55.426" height="96" style="fill:rgb(166,166,166);"/>
        </g>
        <g transform="matrix(1.08234,0.75105,-6.00821e-17,0.867237,-3619.34,-9494.4)">
            <rect x="4766.6" y="6633.66" width="55.426" height="96" style="fill:rgb(166,166,166);"/>
        </g>
        <g transform="matrix(1.08234,0.75105,-6.00821e-17,0.867237,-3619.34,-9244.64)">
            <rect x="4766.6" y="6633.66" width="55.426" height="96" style="fill:rgb(166,166,166);"/>
        </g>
        <g transform="matrix(1.08234,0.75105,-6.00821e-17,0.867237,-3979.28,-9244.64)">
            <rect x="4766.6" y="6633.66" width="55.426" height="96" style="fill:rgb(166,166,166);"/>
        </g>
        <g transform="matrix(1.08234,0.75105,-6.00821e-17,0.867237,-3979.28,-9494.4)">
            <rect x="4766.6" y="6633.66" width="55.426" height="96" style="fill:rgb(166,166,166);"/>
        </g>
        <g transform="matrix(2.16469,-1.5021,-5.07874e-17,1.73447,-8898.42,-4340.98)">
            <rect x="4766.6" y="6633.66" width="55.426" height="96" style="fill:rgb(231,231,231);"/>
        </g>
        <g transform="matrix(1.08234,-0.75105,-2.53937e-17,0.867237,-3739.32,-1918.22)">
            <rect x="4766.6" y="6633.66" width="55.426" height="96" style="fill:rgb(231,231,231);"/>
        </g>
        <g transform="matrix(1.08234,-0.75105,-2.53937e-17,0.867237,-3739.32,-2417.75)">
            <rect x="4766.6" y="6633.66" width="55.426" height="96" style="fill:rgb(231,231,231);"/>
        </g>
        <g transform="matrix(1.08234,-0.75105,-2.53937e-17,0.867237,-3559.36,-2292.86)">
            <rect x="4766.6" y="6633.66" width="55.426" height="96" style="fill:rgb(231,231,231);"/>
        </g>
        <g transform="matrix(1.08234,-0.75105,-2.53937e-17,0.867237,-3559.36,-2043.1)">
            <rect x="4766.6" y="6633.66" width="55.426" height="96" style="fill:rgb(231,231,231);"/>
        </g>
        <g transform="matrix(1.08234,-0.75105,-2.53937e-17,0.867237,-3919.29,-2043.1)">
            <rect x="4766.6" y="6633.66" width="55.426" height="96" style="fill:rgb(231,231,231);"/>
        </g>
        <g transform="matrix(1.08234,-0.75105,-2.53937e-17,0.867237,-3919.29,-2292.86)">
            <rect x="4766.6" y="6633.66" width="55.426" height="96" style="fill:rgb(231,231,231);"/>
        </g>
    </g>
    <defs>
        <radialGradient id="_Radial1" cx="0" cy="0" r="1" gradientUnits="userSpaceOnUse" gradientTransform="matrix(8.18545e-12,576,-576,8.18545e-12,8293.9,1696)"><stop offset="0" style="stop-color:rgb(255,244,193);stop-opacity:1"/><stop offset="1" style="stop-color:rgb(106,176,255);stop-opacity:1"/></radialGradient>
        <radialGradient id="_Radial2" cx="0" cy="0" r="1" gradientUnits="userSpaceOnUse" gradientTransform="matrix(-498.831,-288,288,-498.831,8293.9,1696)"><stop offset="0" style="stop-color:rgb(255,216,164);stop-opacity:1"/><stop offset="1" style="stop-color:rgb(78,126,231);stop-opacity:1"/></radialGradient>
        <radialGradient id="_Radial3" cx="0" cy="0" r="1" gradientUnits="userSpaceOnUse" gradientTransform="matrix(498.831,-288,288,498.831,8293.9,1696)"><stop offset="0" style="stop-color:rgb(255,200,166);stop-opacity:1"/><stop offset="1" style="stop-color:rgb(51,84,184);stop-opacity:1"/></radialGradient>
    </defs>
</svg>