<svg xmlns="http://www.w3.org/2000/svg" width="100%" height="100%" viewBox="0 0 1442 1664"><g transform="matrix(1.84784,0,0,1.53745,1624.05,1304.28)"><g transform="matrix(0.54117,0,0,0.650427,-2648.58,-1639.26)"><path d="M3990.64,1216L3270.11,1632L3325.54,1664L3990.64,1280L4655.75,1664L4711.18,1632L3990.64,1216Z" style="fill:rgb(204,168,231);"/></g><g transform="matrix(-0.270585,0.563286,-0.468667,-0.325214,1550.68,-1889.02)"><path d="M3270.11,1632L3325.54,1664L3990.64,1280L4655.75,1664L4711.18,1632L3990.64,1216" style="fill:rgb(166,109,196);"/></g><g transform="matrix(-0.270585,-0.563286,0.468667,-0.325214,-368.978,2606.73)"><path d="M3325.54,1664L3990.64,1280L4655.75,1664L4711.18,1632L3990.64,1216L3270.11,1632" style="fill:rgb(125,75,174);"/></g><g transform="matrix(0.54117,0,0,0.650427,-4977.37,-1410.31)"><path d="M7628.8,2080L8293.9,1695L8959.01,2080L8293.9,2464L7628.8,2080Z" style="fill:url(#_Radial1);"/></g><g transform="matrix(0.54117,0,0,0.650427,-4977.37,-1410.31)"><path d="M8294.9,1697L7628.8,2080L7628.8,1312L8293.9,928" style="fill:url(#_Radial2);"/></g><g transform="matrix(0.54117,0,0,0.650427,-4977.37,-1410.31)"><path d="M8293.9,928L8959.01,1312L8959.01,2080L8292.9,1698L8293.9,928Z" style="fill:url(#_Radial3);"/></g></g><g transform="matrix(2.11284,0,0,1.75793,1650.35,-792.502)"><g transform="matrix(1.04179,0,0,1.25211,-4356.94,-6679.38)"><path d="M3768.61,6269.65L3658.08,6205.57L3602.67,6110.19L3658.12,5951.8L3713.45,6047.44L3742.69,5967.17L3713.57,5853.35L3827,5918.85L3882.43,6016.53L3905.6,6094.98L3878.4,6206.26L3768.61,6269.65" style="fill:white;"/></g><g transform="matrix(1.04179,0,0,1.25211,-4356.94,-6679.38)"><path d="M3602.67,6111.01L3768.83,6142.54L3768.94,6269.84L3658.22,6205.65L3602.67,6111.01Z" style="fill:rgb(241,110,28);"/></g><g transform="matrix(-1.04179,0,0,1.25211,3495.93,-6679.87)"><path d="M3632.29,6095.03L3768.94,6142.99L3768.94,6269.84L3658.22,6205.65L3632.29,6095.03Z" style="fill:rgb(255,147,42);"/></g><g transform="matrix(1.04179,0,0,1.25211,-4356.94,-6679.38)"><path d="M3713.57,5853.35L3828.43,5919.67L3883.3,6017.9L3905.6,6094.65L3837.27,6121.05L3822.49,6046.67L3768.83,5953.03L3713.57,5853.35Z" style="fill:rgb(255,207,142);"/></g><g transform="matrix(1.04179,0,0,1.25211,-4356.94,-6679.38)"><path d="M3658.15,5951.78L3602.67,6111.01L3705.43,6131.45L3658.15,5951.78Z" style="fill:rgb(255,148,45);"/></g><g transform="matrix(1.04179,0,0,1.25211,-4356.94,-6679.38)"><path d="M3713.57,6046.98L3768.94,6142.6L3837.27,6121.05L3823.81,6047.43L3713.57,5853.35L3741.86,5967.82L3713.57,6046.98Z" style="fill:rgb(255,167,48);"/></g><g transform="matrix(1.04179,0,0,1.25211,-4356.94,-6679.38)"><path d="M3658.15,5951.78L3705.43,6131.45L3768.94,6142.6L3658.15,5951.78Z" style="fill:rgb(255,192,108);"/></g><g transform="matrix(1.04179,0,0,1.25211,-4356.94,-6679.38)"><path d="M3705.08,6131.25L3768.94,6269.45L3837.27,6121.05L3768.94,6142.6L3705.08,6131.25Z" style="fill:rgb(255,125,44);"/></g></g><defs><radialGradient id="_Radial1" cx="0" cy="0" r="1" gradientUnits="userSpaceOnUse" gradientTransform="matrix(8.18545e-12,576,-576,8.18545e-12,8293.9,1696)"><stop offset="0" style="stop-color:rgb(255,130,130);stop-opacity:1"/><stop offset="1" style="stop-color:rgb(204,168,231);stop-opacity:1"/></radialGradient><radialGradient id="_Radial2" cx="0" cy="0" r="1" gradientUnits="userSpaceOnUse" gradientTransform="matrix(-498.831,-288,288,-498.831,8293.9,1696)"><stop offset="0" style="stop-color:rgb(255,113,113);stop-opacity:1"/><stop offset="1" style="stop-color:rgb(166,109,196);stop-opacity:1"/></radialGradient><radialGradient id="_Radial3" cx="0" cy="0" r="1" gradientUnits="userSpaceOnUse" gradientTransform="matrix(498.831,-288,288,498.831,8293.9,1696)"><stop offset="0" style="stop-color:rgb(222,97,97);stop-opacity:1"/><stop offset="1" style="stop-color:rgb(125,75,174);stop-opacity:1"/></radialGradient></defs></svg>