<svg xmlns="http://www.w3.org/2000/svg" width="100%" height="100%" viewBox="0 0 1442 1666"><g transform="matrix(5.81161,3.97433e-16,-6.45218e-16,7.15951,2324.82,-3741)"><g transform="matrix(1.01098,0.4738,0.694119,-0.325302,-974.148,546.082)"><rect x="443.405" y="192" width="115.448" height="168.15" style="fill:url(#_Radial1);"/></g><g transform="matrix(0.607896,-0.284893,-2.11272e-16,-0.657932,-626.036,876.041)"><rect x="384" y="110.851" width="192" height="166.277" style="fill:url(#_Radial2);"/></g><g transform="matrix(0.607896,0.284893,-1.33341e-16,-0.657932,-626.036,876.041)"><rect x="576" y="609.682" width="192" height="166.277" style="fill:url(#_Radial3);"/></g><g transform="matrix(0.172069,-9.55178e-18,1.5507e-17,0.139674,-962.556,352.957)"><path d="M3990.64,1216L3270.11,1632L3325.54,1664L3990.64,1280L4655.75,1664L4711.18,1632L3990.64,1216Z" style="fill:rgb(184,107,186);"/></g><g transform="matrix(-0.0860347,0.120962,-0.149016,-0.0698372,372.632,299.322)"><path d="M3270.11,1632L3325.54,1664L3990.64,1280L4655.75,1664L4711.18,1632L3990.64,1216" style="fill:rgb(125,39,147);"/></g><g transform="matrix(-0.0860347,-0.120962,0.149016,-0.0698372,-237.74,1264.75)"><path d="M3325.54,1664L3990.64,1280L4655.75,1664L4711.18,1632L3990.64,1216L3270.11,1632" style="fill:rgb(102,1,140);"/></g><g transform="matrix(0.308882,0,6.16298e-33,0.25073,-2611.96,-1860.06)"><path d="M7301.03,10006.1L7411.89,9942.1L7522.74,10006.1L7411.89,10070.1L7301.03,10006.1Z" style="fill:rgb(255,198,143);fill-rule:nonzero;"/></g><g transform="matrix(0.154441,0.217138,-0.2675,0.125365,1192.25,-2190.98)"><path d="M7301.03,10006.1L7411.89,9942.1L7522.74,10006.1L7411.89,10070.1L7301.03,10006.1Z" style="fill:rgb(181,88,44);fill-rule:nonzero;"/></g><g transform="matrix(0.154441,-0.217138,0.2675,0.125365,-4126.77,1027.83)"><path d="M7301.03,10006.1L7411.89,9942.1L7522.74,10006.1L7411.89,10070.1L7301.03,10006.1Z" style="fill:rgb(255,148,45);fill-rule:nonzero;"/></g><g transform="matrix(0.360148,-1.99923e-17,3.24568e-17,0.292345,-3046.59,-2101.31)"><path d="M7694.08,9329.63L7694.08,9140.88L7577.42,9262.27L7694.08,9329.63Z" style="fill:rgb(181,88,44);fill-rule:nonzero;"/></g><g transform="matrix(-0.360148,1.99923e-17,3.24568e-17,0.292345,2495.43,-2101.31)"><path d="M7694.08,9329.63L7694.08,9140.88L7577.42,9262.27L7694.08,9329.63Z" style="fill:rgb(255,148,45);fill-rule:nonzero;"/></g><g transform="matrix(0.240839,-1.33692e-17,2.17045e-17,0.195497,-1998.4,-1058.73)"><circle cx="7348.5" cy="8805.59" r="142.17" style="fill:url(#_Linear4);"/></g></g><defs><radialGradient id="_Radial1" cx="0" cy="0" r="1" gradientUnits="userSpaceOnUse" gradientTransform="matrix(111.996,-163.442,-64.915,-93.9933,444.151,359.384)"><stop offset="0" style="stop-color:rgb(188,163,255);stop-opacity:1"/><stop offset="0.57" style="stop-color:rgb(185,124,207);stop-opacity:1"/><stop offset="1" style="stop-color:rgb(184,107,186);stop-opacity:1"/></radialGradient><radialGradient id="_Radial2" cx="0" cy="0" r="1" gradientUnits="userSpaceOnUse" gradientTransform="matrix(-203.952,164.596,101.71,108.922,575.309,112.532)"><stop offset="0" style="stop-color:rgb(170,137,255);stop-opacity:1"/><stop offset="0.57" style="stop-color:rgb(138,68,179);stop-opacity:1"/><stop offset="1" style="stop-color:rgb(124,37,145);stop-opacity:1"/></radialGradient><radialGradient id="_Radial3" cx="0" cy="0" r="1" gradientUnits="userSpaceOnUse" gradientTransform="matrix(192.293,165.615,109.799,-96.6751,576,610.344)"><stop offset="0" style="stop-color:rgb(131,102,255);stop-opacity:1"/><stop offset="0.57" style="stop-color:rgb(111,31,175);stop-opacity:1"/><stop offset="1" style="stop-color:rgb(102,0,139);stop-opacity:1"/></radialGradient><linearGradient id="_Linear4" x1="0" y1="0" x2="1" y2="0" gradientUnits="userSpaceOnUse" gradientTransform="matrix(122.451,-257.635,257.635,122.451,7276.68,8928.29)"><stop offset="0" style="stop-color:rgb(181,88,44);stop-opacity:1"/><stop offset="0.5" style="stop-color:rgb(255,148,45);stop-opacity:1"/><stop offset="1" style="stop-color:rgb(255,198,143);stop-opacity:1"/></linearGradient></defs></svg>