<svg xmlns="http://www.w3.org/2000/svg" width="100%" height="100%" viewBox="0 0 1442 1664"><g transform="matrix(1.84785,0,0,1.53745,1624.05,1304.27)"><g transform="matrix(0.541169,0,0,0.650428,-2648.07,-1639.25)"><path d="M3990.64,1216L3270.11,1632L3325.54,1664L3990.64,1280L4655.75,1664L4711.18,1632L3990.64,1216Z" style="fill:rgb(184,107,186);fill-rule:nonzero;"/></g><g transform="matrix(-0.270585,0.563287,-0.468667,-0.325214,1551.19,-1889.01)"><path d="M3270.11,1632L3325.54,1664L3990.64,1280L4655.75,1664L4711.18,1632L3990.64,1216" style="fill:rgb(125,39,147);fill-rule:nonzero;"/></g><g transform="matrix(-0.270585,-0.563287,0.468667,-0.325214,-368.472,2606.74)"><path d="M3325.54,1664L3990.64,1280L4655.75,1664L4711.18,1632L3990.64,1216L3270.11,1632" style="fill:rgb(102,1,140);fill-rule:nonzero;"/></g><g transform="matrix(3.1177,2.1654,2.14055,-1.48672,-2641.78,-732.343)"><path d="M558.853,192L443.459,191.923L443.405,360.15L558.908,360.075L558.853,192Z" style="fill:url(#_Radial1);fill-rule:nonzero;"/></g><g transform="matrix(1.87465,-1.30204,-4.26268e-16,-3.00693,-1568.25,775.661)"><path d="M576,110.851L384,110.775L384,276.901L576,276.83L576,110.851Z" style="fill:url(#_Radial2);fill-rule:nonzero;"/></g><g transform="matrix(1.87465,1.30204,-1.85942e-16,-3.00693,-1568.25,775.661)"><path d="M768.006,609.607L576,609.681L576,775.66L768.006,775.733L768.006,609.607Z" style="fill:url(#_Radial3);fill-rule:nonzero;"/></g><g transform="matrix(0.541169,0,0,0.650428,-4457.46,-3832.26)"><path d="M7205.24,5823.87L7408.76,5074.98L7604.41,4893.6L7427.06,5824.02L7205.24,5823.87Z" style="fill:white;fill-rule:nonzero;"/></g><g transform="matrix(0.541169,0,0,0.650428,-4457.46,-3832.26)"><path d="M7205.24,5823.87C7205.24,5823.87 6998.94,5363.63 6998.94,5362.59C6998.94,5361.56 7160.32,5218.41 7160.32,5218.41L7427.06,5824.02L7205.24,5823.87Z" style="fill:rgb(231,231,231);fill-rule:nonzero;"/></g></g><defs><radialGradient id="_Radial1" cx="0" cy="0" r="1" gradientUnits="userSpaceOnUse" gradientTransform="matrix(111.996,-163.442,-64.915,-93.9933,444.151,359.384)"><stop offset="0" style="stop-color:rgb(250,102,255);stop-opacity:1"/><stop offset="0.57" style="stop-color:rgb(204,105,207);stop-opacity:1"/><stop offset="1" style="stop-color:rgb(184,107,186);stop-opacity:1"/></radialGradient><radialGradient id="_Radial2" cx="0" cy="0" r="1" gradientUnits="userSpaceOnUse" gradientTransform="matrix(-203.952,164.596,101.71,108.922,575.309,112.532)"><stop offset="0" style="stop-color:rgb(250,102,255);stop-opacity:1"/><stop offset="0.57" style="stop-color:rgb(163,57,179);stop-opacity:1"/><stop offset="1" style="stop-color:rgb(124,37,145);stop-opacity:1"/></radialGradient><radialGradient id="_Radial3" cx="0" cy="0" r="1" gradientUnits="userSpaceOnUse" gradientTransform="matrix(192.293,165.615,109.799,-96.6751,576,610.344)"><stop offset="0" style="stop-color:rgb(251,102,255);stop-opacity:1"/><stop offset="0.57" style="stop-color:rgb(148,31,175);stop-opacity:1"/><stop offset="1" style="stop-color:rgb(102,0,139);stop-opacity:1"/></radialGradient></defs></svg>