<svg xmlns="http://www.w3.org/2000/svg" width="100%" height="100%" viewBox="0 0 1442 1664"><g transform="matrix(1.84785,0,0,1.53745,1624.05,1304.27)"><g transform="matrix(0.541169,0,0,0.650428,-2648.07,-1639.25)"><path d="M3990.64,1216L3270.11,1632L3325.54,1664L3990.64,1280L4655.75,1664L4711.18,1632L3990.64,1216Z" style="fill:rgb(239,21,35);"/></g><g transform="matrix(-0.270585,0.563287,-0.468667,-0.325214,1551.19,-1889.02)"><path d="M3270.11,1632L3325.54,1664L3990.64,1280L4655.75,1664L4711.18,1632L3990.64,1216" style="fill:rgb(172,0,22);"/></g><g transform="matrix(-0.270585,-0.563287,0.468667,-0.325214,-368.472,2606.74)"><path d="M3325.54,1664L3990.64,1280L4655.75,1664L4711.18,1632L3990.64,1216L3270.11,1632" style="fill:rgb(93,2,15);"/></g><g transform="matrix(0.541169,0,0,0.650428,-4976.86,-1410.3)"><path d="M7628.8,2080L8293.9,1695L8959.01,2080L8293.9,2464L7628.8,2080Z" style="fill:url(#_Radial1);"/></g><g transform="matrix(0.541169,0,0,0.650428,-4976.86,-1410.3)"><path d="M8294.9,1696L7628.8,2080L7628.8,1312L8293.9,928" style="fill:url(#_Radial2);"/></g><g transform="matrix(0.541169,0,0,0.650428,-4976.86,-1410.3)"><path d="M8293.9,928L8959.01,1312L8959.01,2080L8292.9,1696L8293.9,928Z" style="fill:url(#_Radial3);"/></g><g transform="matrix(-0.670202,-0.368483,-0.306586,0.805511,22166.3,7032.39)"><path d="M31608.8,4988.24L31457,4918.77L31423.1,5468.63L31563.9,5658.16L31608.8,4988.24Z" style="fill:rgb(229,229,229);"/></g><g transform="matrix(0.19033,-0.608873,1.82997,0.826332,-21990.8,-1901.42)"><path d="M11700.7,10463.4L11478.2,10463.4L11451.9,10690.1L11586.5,10580.1L11700.7,10463.4Z" style="fill:url(#_Linear4);"/></g><g transform="matrix(0.670202,-0.368483,0.306586,0.805511,-23137.9,7032.39)"><path d="M31608.8,4988.24L31457,4918.77L31428.7,5382.06L31564.2,5658.32L31608.8,4988.24Z" style="fill:white;"/></g></g><defs><radialGradient id="_Radial1" cx="0" cy="0" r="1" gradientUnits="userSpaceOnUse" gradientTransform="matrix(8.18545e-12,576,-576,8.18545e-12,8293.9,1696)"><stop offset="0" style="stop-color:rgb(213,34,39);stop-opacity:1"/><stop offset="1" style="stop-color:rgb(198,34,44);stop-opacity:1"/></radialGradient><radialGradient id="_Radial2" cx="0" cy="0" r="1" gradientUnits="userSpaceOnUse" gradientTransform="matrix(-498.831,-288,288,-498.831,8293.9,1696)"><stop offset="0" style="stop-color:rgb(214,35,39);stop-opacity:1"/><stop offset="0.43" style="stop-color:rgb(188,30,27);stop-opacity:1"/><stop offset="1" style="stop-color:rgb(131,19,0);stop-opacity:1"/></radialGradient><radialGradient id="_Radial3" cx="0" cy="0" r="1" gradientUnits="userSpaceOnUse" gradientTransform="matrix(498.831,-288,288,498.831,8293.9,1696)"><stop offset="0" style="stop-color:rgb(215,35,39);stop-opacity:1"/><stop offset="0.53" style="stop-color:rgb(127,11,22);stop-opacity:1"/><stop offset="1" style="stop-color:rgb(93,2,15);stop-opacity:1"/></radialGradient><linearGradient id="_Linear4" x1="0" y1="0" x2="1" y2="0" gradientUnits="userSpaceOnUse" gradientTransform="matrix(-108.971,-53.7197,693.914,-107.875,11593,10623.1)"><stop offset="0" style="stop-color:rgb(229,229,229);stop-opacity:1"/><stop offset="1" style="stop-color:white;stop-opacity:1"/></linearGradient></defs></svg>