<svg xmlns="http://www.w3.org/2000/svg" width="100%" height="100%" viewBox="0 0 1442 1664"><g transform="matrix(1.84785,0,0,1.53745,1457.77,-519.716)"><g transform="matrix(1,0,0,1,89.9841,1186.38)"><g transform="matrix(0.54117,0,0,0.650427,-2648.58,-1639.26)"><path d="M3270.11,1632L3325.54,1664L3990.64,1280L4655.75,1664L4711.18,1632L3990.64,1216L3270.11,1632Z" style="fill:rgb(240,87,27);"/></g><g transform="matrix(-0.270585,0.563286,-0.468667,-0.325214,1550.68,-1889.02)"><path d="M3270.11,1632L3325.54,1664L3990.64,1280L4655.75,1664L4711.18,1632L3990.64,1216L3270.11,1632Z" style="fill:rgb(141,71,14);"/></g><g transform="matrix(-0.270585,-0.563286,0.468667,-0.325214,-368.978,2606.73)"><path d="M3325.54,1664L3990.64,1280L4655.75,1664L4711.18,1632L3990.64,1216L3270.11,1632" style="fill:rgb(95,34,3);"/></g><g transform="matrix(0.54117,0,0,0.650427,-4977.37,-1410.31)"><path d="M7628.8,2080L8293.9,1696L8959.01,2080L8293.9,2464L7628.8,2080Z" style="fill:url(#_Radial1);"/></g><g transform="matrix(0.54117,0,0,0.650427,-4977.37,-1410.31)"><path d="M8293.9,1696L7628.8,2080L7628.8,1312L8293.9,928" style="fill:url(#_Radial2);"/></g><g transform="matrix(0.54117,0,0,0.650427,-4977.37,-1410.31)"><path d="M8293.9,928L8959.01,1312L8959.01,2080L8293.9,1696L8293.9,928Z" style="fill:url(#_Radial3);"/></g></g><g><g transform="matrix(0.54117,0,0,0.650427,-3957.55,-827.528)"><path d="M6575.71,3136L7019.11,2880L7019.11,2496L6797.41,2624L6797.41,2752L6575.71,2880L6575.71,3136Z" style="fill:rgb(139,30,14);"/></g><g transform="matrix(0.54117,0,0,0.650427,-3957.55,-827.528)"><path d="M6797.41,2752L6575.71,2624L6575.71,2752L6354.01,2624L6354.01,2240L6575.71,2368L6575.71,2496L6797.41,2624L6797.41,2752Z" style="fill:rgb(98,1,8);"/></g><g transform="matrix(0.54117,0,0,0.650427,-3957.55,-827.528)"><path d="M6132.3,2752L6354.01,2624L6575.71,2752L6354.01,2880L6132.3,2752Z" style="fill:rgb(217,86,35);"/></g><g transform="matrix(0.54117,0,0,0.650427,-3957.55,-827.528)"><path d="M6132.3,2880L6575.71,3136L6575.71,2880L6354.01,2752L6354.01,2880L6132.3,2752L6132.3,2880Z" style="fill:rgb(98,1,8);"/></g><g transform="matrix(0.54117,0,0,0.650427,-3957.55,-827.528)"><path d="M6354.01,2752L6575.71,2624L6797.41,2752L6575.71,2880L6354.01,2752Z" style="fill:rgb(255,110,54);"/></g><g transform="matrix(0.54117,0,0,0.650427,-3837.57,-994.037)"><path d="M6354.01,2752L6575.71,2624L6797.41,2752L6575.71,2880L6354.01,2752Z" style="fill:rgb(255,110,54);"/></g><g transform="matrix(0.54117,0,0,0.650427,-3957.55,-1160.55)"><path d="M6354.01,2752L6575.71,2624L6797.41,2752L6575.71,2880L6354.01,2752Z" style="fill:rgb(255,127,77);"/></g><g transform="matrix(0.54117,0,0,0.650427,-3957.55,-827.528)"><path d="M6797.41,2240L6797.41,2368L6575.71,2496L6575.71,2368L6797.41,2240Z" style="fill:rgb(139,30,14);"/></g></g></g><defs><radialGradient id="_Radial1" cx="0" cy="0" r="1" gradientUnits="userSpaceOnUse" gradientTransform="matrix(8.18545e-12,576,-576,8.18545e-12,8293.9,1696)"><stop offset="0" style="stop-color:rgb(255,161,124);stop-opacity:1"/><stop offset="1" style="stop-color:rgb(239,82,21);stop-opacity:1"/></radialGradient><radialGradient id="_Radial2" cx="0" cy="0" r="1" gradientUnits="userSpaceOnUse" gradientTransform="matrix(-498.831,-288,288,-498.831,8293.9,1696)"><stop offset="0" style="stop-color:rgb(239,82,21);stop-opacity:1"/><stop offset="0.57" style="stop-color:rgb(170,74,16);stop-opacity:1"/><stop offset="1" style="stop-color:rgb(139,71,14);stop-opacity:1"/></radialGradient><radialGradient id="_Radial3" cx="0" cy="0" r="1" gradientUnits="userSpaceOnUse" gradientTransform="matrix(498.831,-288,288,498.831,8293.9,1696)"><stop offset="0" style="stop-color:rgb(215,97,35);stop-opacity:1"/><stop offset="0.53" style="stop-color:rgb(127,51,11);stop-opacity:1"/><stop offset="1" style="stop-color:rgb(93,33,2);stop-opacity:1"/></radialGradient></defs></svg>