<?xml version="1.0" encoding="UTF-8" standalone="no"?><!DOCTYPE svg PUBLIC "-//W3C//DTD SVG 1.1//EN" "http://www.w3.org/Graphics/SVG/1.1/DTD/svg11.dtd"><svg width="100%" height="100%" viewBox="0 0 1081 1248" version="1.1" xmlns="http://www.w3.org/2000/svg" xmlns:xlink="http://www.w3.org/1999/xlink" xml:space="preserve" xmlns:serif="http://www.serif.com/" style="fill-rule:evenodd;clip-rule:evenodd;stroke-linejoin:round;stroke-miterlimit:2;"><g><g><path d="M540.399,0l-540.399,311.999l41.569,24l498.83,-287.999l498.83,287.999l41.569,-24l-540.399,-311.999Z" style="fill:#512a92;"/><path d="M1080.8,311.999l-41.569,24l-0,576l-498.83,287.999l-0,48l540.399,-312" style="fill:#27075b;"/><path d="M540.399,1200l-498.83,-287.999l0,-576l-41.569,-24l0,623.999l540.399,312" style="fill:#1d093e;"/><path d="M41.569,911.999l498.829,-288.001l498.831,288.001l-498.83,287.999l-498.83,-287.999Z" style="fill:url(#_Linear1);"/><path d="M540.399,624l-498.83,287.999l0,-576l498.83,-287.999" style="fill:url(#_Linear2);"/><path d="M540.399,48l498.83,287.999l-0,576l-498.831,-288.001l0.001,-575.998Z" style="fill:url(#_Linear3);"/></g><path d="M596.248,410.639c-0,22.412 -13.243,41.732 -32.328,50.561l113.533,99.343l111.774,-22.356c-5.667,-8.262 -8.984,-18.263 -8.984,-29.04c0,-28.385 23.012,-51.395 51.396,-51.395c28.384,-0 51.395,23.01 51.395,51.395c0,27.807 -22.083,50.457 -49.668,51.367l-120.598,267.994c-11.067,24.591 -35.524,40.407 -62.493,40.407l-219.754,-0c-26.967,-0 -51.426,-15.816 -62.492,-40.407l-120.597,-267.994c-27.586,-0.91 -49.67,-23.56 -49.67,-51.367c0,-28.385 23.011,-51.395 51.395,-51.395c28.385,-0 51.396,23.01 51.396,51.395c-0,10.777 -3.317,20.778 -8.985,29.04l111.776,22.356l113.653,-99.447c-18.967,-8.876 -32.106,-28.132 -32.106,-50.457c0,-30.75 24.928,-55.678 55.678,-55.678c30.752,-0 55.679,24.928 55.679,55.678Z" style="fill:#f36944;fill-rule:nonzero;"/></g><defs><linearGradient id="_Linear1" x1="0" y1="0" x2="1" y2="0" gradientUnits="userSpaceOnUse" gradientTransform="matrix(-0.000870436,-576,576,-0.000870436,540.399,1200)"><stop offset="0" style="stop-color:#512a92;stop-opacity:1"/><stop offset="1" style="stop-color:#160b27;stop-opacity:1"/></linearGradient><linearGradient id="_Linear2" x1="0" y1="0" x2="1" y2="0" gradientUnits="userSpaceOnUse" gradientTransform="matrix(498.829,287.999,-287.999,498.829,41.5692,335.999)"><stop offset="0" style="stop-color:#27075b;stop-opacity:1"/><stop offset="1" style="stop-color:#0b021a;stop-opacity:1"/></linearGradient><linearGradient id="_Linear3" x1="0" y1="0" x2="1" y2="0" gradientUnits="userSpaceOnUse" gradientTransform="matrix(-498.831,287.999,-287.999,-498.831,1039.23,335.999)"><stop offset="0" style="stop-color:#1d093e;stop-opacity:1"/><stop offset="1" style="stop-color:#0c041b;stop-opacity:1"/></linearGradient></defs></svg>